<svg width="225" height="44" viewBox="0 0 225 44" fill="none" xmlns="http://www.w3.org/2000/svg">
<path d="M19.7441 0.366936C19.2317 0.435551 18.5144 0.555626 18.1728 0.624241L17.5238 0.744316V11.9285C17.5238 22.804 17.5408 23.1299 17.8824 23.8847C18.873 26.0803 21.2983 27.1439 23.7407 26.4234C24.68 26.1489 26.2684 24.5536 26.5417 23.6102C27.0541 21.8605 26.6442 19.9736 25.4999 18.7557C24.9021 18.121 23.4674 17.3662 22.8696 17.3662C22.4768 17.3662 22.4768 17.3319 22.4768 15.3936V13.4037L23.1258 13.5067C26.8491 14.1414 29.4965 16.5086 30.4188 20.0422C31.768 25.2569 27.5494 30.5746 22.084 30.5746C19.1292 30.5746 15.9695 28.6191 14.6373 25.9603C13.6296 23.9704 13.5955 23.6273 13.5955 12.3402V2.08231L13.2197 2.18523C12.9977 2.25384 12.6561 2.42538 12.4341 2.56261L12.0412 2.80276L12.0925 13.2151C12.1608 22.4781 12.195 23.7474 12.4511 24.6394C13.4076 27.9158 16.1574 30.7118 19.3683 31.6724C23.8944 33.0104 28.9328 30.8147 31.0165 26.5778C32.5366 23.4901 32.5537 20.6426 31.1019 17.5549C29.8551 14.9133 26.8491 12.6147 24.0823 12.1858C23.4332 12.0829 22.8013 11.98 22.6988 11.9457C22.528 11.9114 22.4768 11.3625 22.4768 9.97301V8.05179L23.5528 8.17187C29.1207 8.73794 33.7322 12.6318 35.4914 18.2239C35.8329 19.3389 35.8842 19.8535 35.8842 22.0835C35.8671 24.5365 35.85 24.7252 35.3206 26.2862C34.5349 28.5676 33.5955 30.0771 31.8876 31.7925C30.1796 33.5079 28.6766 34.4513 26.4051 35.2404C24.8508 35.7722 24.663 35.7893 22.2206 35.8065C20.0003 35.8065 19.4879 35.755 18.3777 35.4119C13.6296 33.9024 10.2137 30.4717 8.77906 25.7373C8.42039 24.5193 8.40331 24.1934 8.30083 14.879L8.21544 5.27289L6.7466 6.76526C3.70645 9.81862 1.70815 13.6439 0.837101 18.0181C0.444273 20.0422 0.444273 23.9533 0.837101 25.9774C1.70815 30.3859 3.74061 34.2283 6.84908 37.3503C16.1232 46.6819 31.4435 45.6355 39.4026 35.1203C41.2813 32.6673 42.6306 29.6654 43.3308 26.4577C43.8945 23.9018 43.8945 20.0937 43.3308 17.5378C41.4521 8.96094 34.9448 2.44253 26.5588 0.727161C24.6288 0.332626 21.2642 0.143936 19.7441 0.366936Z" fill="#D72034"/>
<path d="M72.7752 13.8155C70.4695 14.4159 68.42 15.8225 67.1561 17.6751C65.9605 19.4247 65.4823 20.9857 65.3798 23.4044C65.2432 26.9381 66.1313 29.494 68.2321 31.621C70.1621 33.5594 72.4507 34.4342 75.5933 34.3999C77.4892 34.3828 79.0434 34.0054 80.1706 33.3192L80.7172 32.9762V30.2144V27.4355L80.1706 27.8987C79.8632 28.156 79.1117 28.602 78.4969 28.9107C77.5233 29.391 77.2159 29.4596 76.0203 29.4596C74.8589 29.4596 74.5003 29.391 73.6634 28.9793C71.8188 28.053 70.8794 26.2004 71.016 23.7303C71.2039 20.5397 73.1339 18.5156 76.0033 18.5156C77.4892 18.5156 78.753 19.0302 79.9315 20.1109L80.7172 20.8485V18.001V15.1363L80.2902 14.8619C79.1459 14.1071 77.5916 13.7126 75.5933 13.6611C74.3636 13.6268 73.3047 13.6782 72.7752 13.8155Z" fill="#F6F6F6"/>
<path d="M216.498 13.867C214.824 14.313 213.526 15.0506 212.279 16.2342C210.213 18.1726 209.154 20.8314 209.154 23.9534C209.171 28.9108 211.63 32.5646 215.866 33.9368C218.445 34.7774 222.083 34.4858 223.979 33.3193L224.525 32.9762V30.2145V27.4528L223.859 27.9845C223.483 28.2761 222.732 28.7393 222.185 28.9966C221.366 29.374 220.956 29.4597 219.828 29.4597C217.608 29.4597 216.225 28.5849 215.319 26.6294C214.944 25.8232 214.875 25.4458 214.875 24.0563C214.875 22.6669 214.944 22.2895 215.319 21.4661C215.576 20.9343 216.054 20.2139 216.413 19.8537C218.343 17.9325 221.673 18.0525 223.808 20.1624L224.542 20.8829L224.491 17.9668L224.44 15.0506L223.347 14.5189C222.749 14.2101 221.844 13.8842 221.314 13.7813C220.016 13.524 217.625 13.5583 216.498 13.867Z" fill="#F6F6F6"/>
<path d="M53.7324 16.3362V18.5491L55.2354 18.6005L56.7213 18.652L56.7726 26.2339L56.8067 33.833H59.2833H61.7598V23.9696V14.1063H57.7461H53.7324V16.3362Z" fill="#F6F6F6"/>
<path d="M96.2603 23.9696V33.833H101.435C107.84 33.833 108.728 33.6615 110.556 32.1863C110.966 31.8432 111.461 31.1913 111.751 30.6081C112.178 29.7161 112.23 29.4588 112.23 27.8121C112.23 26.1482 112.195 25.9252 111.717 24.9989C111.085 23.7466 109.992 22.8718 108.404 22.34C107.481 22.0141 106.764 21.9283 104.51 21.8597L101.726 21.774V20.2644V18.7378H106.252H110.778V16.422V14.1063H103.519H96.2603V23.9696ZM105.5 25.9423C106.354 26.1825 106.713 26.6456 106.815 27.6234C106.901 28.6183 106.696 29.0986 105.944 29.5446C105.5 29.8362 105.073 29.8877 103.57 29.8877H101.726V27.8292V25.7708H103.314C104.168 25.7708 105.159 25.8565 105.5 25.9423Z" fill="#F6F6F6"/>
<path d="M115.218 23.9696V33.833L117.968 33.7987L120.717 33.7472L124.424 27.9664C126.456 24.793 128.164 22.1856 128.249 22.1685C128.318 22.1685 128.369 24.793 128.369 28.0008V33.833H131.016H133.664V23.9696V14.1063L130.897 14.1406L128.147 14.192L124.372 20.0586L120.598 25.9252L120.547 20.0243L120.512 14.1063H117.865H115.218V23.9696Z" fill="#F6F6F6"/>
<path d="M135.883 16.422V18.7378H138.018H140.153V26.2854V33.833H142.971H145.789V26.2854V18.7378H147.924H150.059V16.422V14.1063H142.971H135.883V16.422Z" fill="#F6F6F6"/>
<path d="M152.281 23.9696V33.833H155.099H157.917V30.5738V27.3146H159.933C162.905 27.3146 164.596 26.7828 165.945 25.4277C168.814 22.5459 168.268 17.2282 164.886 15.1869C163.349 14.2435 162.341 14.1063 157.029 14.1063H152.281V23.9696ZM161.128 18.8064C162.085 19.3038 162.426 20.5732 161.931 21.7568C161.59 22.5802 160.599 23.009 159.079 23.0262H157.917V20.6933V18.3432L159.25 18.429C160.018 18.4805 160.804 18.6348 161.128 18.8064Z" fill="#F6F6F6"/>
<path d="M170.043 23.9696V33.833H172.827L175.594 33.8159L179.266 28.0694C181.282 24.8959 182.99 22.2714 183.075 22.2371C183.143 22.1856 183.195 24.7759 183.195 27.9836V33.833H185.842H188.489V23.9696V14.1063H185.774H183.075L179.335 19.9385C177.285 23.1463 175.543 25.7708 175.475 25.7708C175.389 25.7708 175.338 23.1463 175.338 19.9385V14.1063H172.691H170.043V23.9696Z" fill="#F6F6F6"/>
<path d="M191.734 23.9696V33.833H194.467H197.199L197.233 29.596L197.285 25.3591L200.103 29.5789L202.921 33.8159L206.388 33.833H209.855L206.166 28.9614C204.151 26.2682 202.443 23.9525 202.391 23.8152C202.306 23.5923 205.654 19.1323 209.121 14.8267L209.701 14.1063H206.473H203.228L200.257 18.2575L197.285 22.4258L197.233 18.2575L197.199 14.1063H194.467H191.734V23.9696Z" fill="#F6F6F6"/>
<path d="M87.584 21.0026C86.2689 21.2942 85.1587 22.7695 85.1587 24.2275C85.1587 24.8965 85.8589 26.1144 86.5592 26.6805C88.2159 28.0185 90.9145 27.0407 91.4781 24.8965C92.11 22.5293 90.0434 20.4709 87.584 21.0026Z" fill="#F6F6F6"/>
</svg>
