<svg width="38" height="37" viewBox="0 0 38 37" fill="none" xmlns="http://www.w3.org/2000/svg">
<path d="M11.6911 27.2632C11.6911 27.2632 25.3308 29.2105 31.1763 35.0526H33.1249C33.6416 35.0526 34.1372 34.8475 34.5027 34.4823C34.8681 34.1171 35.0734 33.6217 35.0734 33.1053V21.2984C35.9108 21.0832 36.6528 20.5958 37.1826 19.9129C37.7125 19.23 38 18.3904 38 17.5263C38 16.6622 37.7125 15.8226 37.1826 15.1397C36.6528 14.4568 35.9108 13.9694 35.0734 13.7543V1.94737C35.0734 1.43089 34.8681 0.935573 34.5027 0.570371C34.1372 0.205169 33.6416 0 33.1249 0H31.1763C25.3308 5.8421 11.6911 7.78947 11.6911 7.78947H3.89704C2.86348 7.78947 1.87225 8.19981 1.14142 8.93021C0.41058 9.66062 0 10.6513 0 11.6842V23.3684C0 24.4014 0.41058 25.392 1.14142 26.1224C1.87225 26.8528 2.86348 27.2632 3.89704 27.2632H5.84556L7.79408 37H11.6911V27.2632ZM15.5882 11.0241C16.919 10.7397 18.5636 10.3425 20.3426 9.82253C23.6122 8.86053 27.7664 7.34742 31.1763 5.01253V30.0382C27.7664 27.7052 23.6102 26.1921 20.3426 25.2301C18.7731 24.7717 17.1872 24.3716 15.5882 24.0305V11.0241ZM3.89704 11.6842H11.6911V23.3684H3.89704V11.6842Z" fill="#B70003"/>
</svg>
