<svg width="15" height="13" viewBox="0 0 15 13" fill="none" xmlns="http://www.w3.org/2000/svg">
<path opacity="0.8" d="M14.8305 6.91832L9.06168 12.8267C8.95336 12.9377 8.80644 13 8.65325 13C8.50006 13 8.35314 12.9377 8.24482 12.8267C8.13649 12.7158 8.07564 12.5653 8.07564 12.4084C8.07564 12.2515 8.13649 12.101 8.24482 11.9901L13.0295 7.09084L0.576883 7.09084C0.423884 7.09084 0.277151 7.02859 0.168964 6.91779C0.0607777 6.80698 0 6.6567 0 6.5C0 6.3433 0.0607777 6.19302 0.168964 6.08221C0.277151 5.97141 0.423884 5.90916 0.576883 5.90916L13.0295 5.90916L8.24482 1.0099C8.13649 0.898959 8.07564 0.748487 8.07564 0.591588C8.07564 0.434689 8.13649 0.284216 8.24482 0.173272C8.35314 0.0623279 8.50006 1.16899e-09 8.65325 0C8.80644 -1.16899e-09 8.95336 0.0623279 9.06168 0.173272L14.8305 6.08168C14.8842 6.13657 14.9269 6.20177 14.9559 6.27355C14.985 6.34533 15 6.42228 15 6.5C15 6.57772 14.985 6.65467 14.9559 6.72645C14.9269 6.79823 14.8842 6.86343 14.8305 6.91832Z" fill="white"/>
</svg>
