<svg width="38" height="40" viewBox="0 0 38 40" fill="none" xmlns="http://www.w3.org/2000/svg">
<path d="M16.886 0.659622C16.4354 0.721199 15.8045 0.82896 15.5042 0.890537L14.9334 0.998299V11.0355C14.9334 20.7956 14.9484 21.0881 15.2488 21.7655C16.12 23.736 18.2528 24.6904 20.4006 24.0438C21.2267 23.7975 22.6235 22.3658 22.8638 21.5191C23.3144 19.9489 22.954 18.2555 21.9476 17.1625C21.4219 16.5929 20.1603 15.9156 19.6346 15.9156C19.2891 15.9156 19.2891 15.8848 19.2891 14.1452V12.3594L19.8599 12.4518C23.1342 13.0214 25.4623 15.1458 26.2733 18.3171C27.4599 22.997 23.75 27.7693 18.9437 27.7693C16.3453 27.7693 13.5666 26.0143 12.3951 23.6282C11.5089 21.8424 11.4789 21.5345 11.4789 11.405V2.19907L11.1484 2.29144C10.9532 2.35302 10.6528 2.50696 10.4575 2.63012L10.1121 2.84564L10.1571 12.1901C10.2172 20.5031 10.2472 21.6423 10.4725 22.4428C11.3136 25.3832 13.7318 27.8925 16.5555 28.7546C20.5358 29.9553 24.9666 27.9848 26.799 24.1824C28.1358 21.4114 28.1508 18.8559 26.8741 16.0849C25.7777 13.7141 23.1342 11.6513 20.701 11.2664C20.1302 11.1741 19.5745 11.0817 19.4844 11.0509C19.3342 11.0201 19.2891 10.5275 19.2891 9.28053V7.55635L20.2354 7.66411C25.1318 8.17213 29.1872 11.6667 30.7342 16.6853C31.0346 17.6859 31.0796 18.1478 31.0796 20.149C31.0646 22.3505 31.0496 22.5198 30.584 23.9207C29.8931 25.9682 29.067 27.3229 27.565 28.8623C26.063 30.4018 24.7413 31.2485 22.7437 31.9566C21.3769 32.4338 21.2117 32.4492 19.0638 32.4646C17.1113 32.4646 16.6607 32.4184 15.6844 32.1106C11.5089 30.7558 8.50494 27.6769 7.24328 23.4281C6.92787 22.3351 6.91285 22.0426 6.82273 13.6834L6.74763 5.06244L5.45593 6.40176C2.78241 9.14198 1.0251 12.575 0.259091 16.5005C-0.0863636 18.3171 -0.0863636 21.827 0.259091 23.6436C1.0251 27.6 2.81245 31.0483 5.54605 33.8501C13.7018 42.2247 27.1745 41.2857 34.1737 31.8488C35.8259 29.6474 37.0125 26.9534 37.6283 24.0746C38.1239 21.7809 38.1239 18.3633 37.6283 16.0695C35.9761 8.37226 30.2536 2.52235 22.8789 0.982906C21.1816 0.628834 18.2227 0.459492 16.886 0.659622Z" fill="#B70003"/>
</svg>
