<svg width="250" height="496" viewBox="0 0 250 496" fill="none" xmlns="http://www.w3.org/2000/svg">
<path d="M249.445 38.45C244.182 27.0562 235.707 17.3668 225.015 10.5178C223.671 9.66011 191.79 -10.0954 159.003 6.82969C148.969 12.0674 140.569 19.8614 134.691 29.3869C133.614 29.1709 132.517 29.0561 131.418 29.0438C127.233 29.0438 123.219 30.6706 120.26 33.5658C117.301 36.461 115.638 40.3879 115.638 44.4823C115.638 44.7682 115.638 45.0542 115.638 45.3401C90.6535 52.1731 73.6756 64.1522 65.1721 81.1057C54.5937 102.148 60 125.048 64.7047 137.856C49.7946 139.177 35.7256 145.196 24.6123 155.01C13.5957 164.902 0.942593 183.257 3.105 214.42C3.44345 219.436 4.29514 224.407 5.64728 229.258C3.60799 231.301 2.05447 233.758 1.09734 236.456C0.140224 239.153 -0.196926 242.024 0.110056 244.864C0.417038 247.703 1.36059 250.442 2.87332 252.884C4.38606 255.325 6.43074 257.411 8.86169 258.991C3.35161 273.81 2.6274 289.927 6.78698 305.164C10.3188 317.198 16.7072 328.247 25.4314 337.408C34.1556 346.571 44.969 353.585 56.9899 357.883C57.6222 358.85 58.3568 359.752 59.1816 360.57C54.9153 372.751 50.6197 394.079 61.3149 416.035C66.9967 427.15 75.4501 436.688 85.895 443.763C96.3395 450.84 108.438 455.225 121.073 456.518C122.492 458.702 124.452 460.501 126.772 461.745C129.091 462.988 131.695 463.639 134.34 463.636H134.632C139.115 471.717 145.37 478.726 152.948 484.163C160.526 489.6 169.24 493.332 178.465 495.084C181.946 495.702 185.477 496.008 189.014 496C201.86 495.74 214.362 491.897 225.052 484.923C235.742 477.95 244.174 468.133 249.357 456.633L250 455.26V39.9365L249.445 38.45ZM165.724 19.2663C190.914 6.25793 216.775 22.1252 217.009 22.2968C223.825 26.6614 229.492 32.5388 233.548 39.4505L179.985 79.4762C175.386 76.8683 170.163 75.4974 164.848 75.5023C161.745 75.5026 158.661 75.9651 155.701 76.8746L143.604 54.0028C145.859 51.2975 147.097 47.9166 147.11 44.4252C147.09 42.4643 146.693 40.5248 145.941 38.7072C150.462 30.482 157.337 23.7258 165.724 19.2663ZM174.491 204.299C172.51 200.196 169.326 196.763 165.345 194.436L167.361 134.855C170.869 134.605 174.303 133.743 177.501 132.31L227.382 189.975L174.491 204.299ZM85.3937 345.846C85.2375 345.185 85.0324 344.534 84.7801 343.903L109.852 304.448L158.214 334.209C157.627 336.139 157.245 338.124 157.075 340.128L85.3937 345.846ZM145.298 128.05C147.567 129.908 150.096 131.439 152.808 132.596L150.821 191.291C148.151 191.558 145.549 192.284 143.136 193.435L109.414 163.33L145.298 128.05ZM132.616 203.241C130.739 206.56 129.735 210.284 129.694 214.077L40.4504 230.802L98.8941 173.25L132.616 203.241ZM134.545 227.828C135.763 229.386 137.165 230.797 138.723 232.031L105.118 284.78L41.0056 245.297L134.545 227.828ZM187.641 312.996H187.378C183.317 312.994 179.298 313.792 175.558 315.339C171.818 316.884 168.434 319.152 165.607 322.004L117.508 292.385L152.721 236.977H153.247C157.081 236.967 160.855 236.034 164.234 234.261L196.203 268.283L187.641 312.996ZM78.2051 87.2813C85.2769 73.215 100.56 63.3515 123.733 57.8337C125.762 58.9137 128.004 59.557 130.308 59.7207L143.282 84.222C139.061 88.3534 136.179 93.6121 134.999 99.3385C133.819 105.065 134.393 111.005 136.649 116.414L98.6602 153.581L80.0461 137.142C76.2179 128.164 68.6787 106.15 78.2051 87.2526V87.2813ZM34.3725 165.36C45.4842 155.835 59.9427 150.904 74.6985 151.608L88.3741 163.816L26.6286 224.483C24.44 223.69 22.1246 223.283 19.7906 223.283H19.0893C18.2982 220.003 17.7803 216.666 17.5406 213.305C15.8165 187.774 25.7811 173.107 34.4308 165.331L34.3725 165.36ZM20.7258 301.305C17.253 288.202 18.1541 274.359 23.2973 261.793C26.9587 261.183 30.3711 259.578 33.145 257.161L97.6376 296.843L73.6172 334.412C72.4948 334.163 71.349 334.026 70.1984 334.01C67.404 334.015 64.6628 334.756 62.2618 336.156C59.8609 337.553 57.8885 339.559 56.5518 341.959C47.9642 338.072 40.3277 332.43 34.1579 325.412C27.9877 318.395 23.4275 310.164 20.7842 301.274L20.7258 301.305ZM74.3769 409.803C67.8122 395.508 67.3183 379.252 73.0036 364.602C76.1006 364.055 78.9542 362.598 81.1858 360.428L159.208 354.222C161.402 359.342 165.015 363.76 169.64 366.975L136.503 433.017C135.789 432.883 135.066 432.806 134.34 432.787C131.304 432.79 128.333 433.654 125.787 435.272C123.241 436.89 121.228 439.195 119.992 441.909C110.312 440.545 101.113 436.912 93.1797 431.316C85.2464 425.721 78.8156 418.329 74.4353 409.773L74.3769 409.803ZM181.095 481.077C174.001 479.71 167.304 476.829 161.48 472.638C155.655 468.447 150.849 463.051 147.402 456.832C148.96 454.585 149.877 451.972 150.057 449.263C150.236 446.554 149.673 443.847 148.425 441.423L183.141 372.207C184.514 372.412 185.901 372.516 187.29 372.521C189.601 372.513 191.904 372.253 194.157 371.748L234.659 453.658C224.197 473.357 202.193 484.792 181.095 481.077ZM235.477 422.667L207.132 365.315C211.885 361.305 215.254 355.953 216.775 349.993L235.477 348.763V422.667ZM235.477 334.496L216.863 335.727C215.847 331.656 213.969 327.843 211.352 324.527C208.734 321.214 205.435 318.474 201.667 316.484L208.388 281.319L235.477 310.167V334.496ZM235.477 289.153L174.111 223.94C174.947 222.226 175.574 220.422 175.981 218.565L235.36 202.498L235.477 289.153ZM235.477 177.653L188.722 123.619C192.586 118.799 194.829 112.926 195.143 106.809C195.457 100.691 193.826 94.6282 190.475 89.454L235.448 55.8898L235.477 177.653Z" fill="url(#paint0_linear_700_3490)"/>
<defs>
<linearGradient id="paint0_linear_700_3490" x1="-152.316" y1="248.103" x2="249.981" y2="248.103" gradientUnits="userSpaceOnUse">
<stop stop-color="#CE0F0F"/>
<stop offset="1" stop-color="#CE0F0F" stop-opacity="0"/>
</linearGradient>
</defs>
</svg>
