<svg width="250" height="496" viewBox="0 0 250 496" fill="none" xmlns="http://www.w3.org/2000/svg">
<path d="M227.9 155.03C216.659 145.232 202.447 139.217 187.382 137.883C192.138 125.08 197.599 102.188 186.908 81.1546C176.926 61.4924 155.488 48.4892 123.15 42.4876C117.831 27.2498 106.767 14.5139 92.171 6.82169C59.0343 -10.0968 26.8152 9.67953 25.457 10.5083C14.611 17.3964 6.01714 27.1307 0.679397 38.5724L0 39.9729V455.276L0.649753 456.648C5.8881 468.147 14.4105 477.957 25.2142 484.927C36.015 491.898 48.6513 495.74 61.635 496C65.2098 496.008 68.7762 495.702 72.2946 495.087C82.9176 493.101 92.8629 488.578 101.221 481.93C109.582 475.284 116.094 466.72 120.166 457.02H120.787C150.911 457.02 178.612 441.045 190.954 415.952C202.266 393.089 197.009 370.684 192.522 358.795C203.8 355.445 214.171 349.714 222.885 342.014C231.6 334.316 238.439 324.843 242.912 314.276C247.384 303.709 249.378 292.314 248.748 280.911C248.119 269.509 244.88 258.384 239.269 248.339C245.312 237.897 248.901 226.295 249.785 214.359C251.821 183.266 239.035 164.918 227.9 155.03ZM234.988 213.445C234.149 224.487 230.529 235.162 224.444 244.538L222.112 248.167L224.357 251.854C229.761 260.386 232.997 270.036 233.805 280.012C234.61 289.989 232.961 300.009 228.993 309.25C225.026 318.489 218.85 326.69 210.978 333.177C203.102 339.661 193.75 344.249 183.689 346.564L128.287 310.155V267.858C132.206 265.927 135.312 262.745 137.083 258.85C138.851 254.956 139.175 250.588 137.995 246.49C136.817 242.391 134.208 238.813 130.614 236.363C127.022 233.913 122.662 232.741 118.277 233.046C113.891 233.352 109.752 235.116 106.555 238.039C103.362 240.962 101.312 244.865 100.752 249.085C100.19 253.305 101.156 257.582 103.486 261.191C105.813 264.801 109.359 267.52 113.521 268.887V317.7L176.514 359.082C179.851 365.998 188.326 387.659 177.46 409.836C176.503 411.812 175.41 413.722 174.181 415.553L65.4724 354.909V299.637H63.4648C67.466 298.542 71.0014 296.233 73.5456 293.046C76.0898 289.863 77.5101 285.972 77.6005 281.947C77.6908 277.922 76.4427 273.976 74.0425 270.69C71.6395 267.402 68.2143 264.948 64.2639 263.686C60.3134 262.425 56.0496 262.423 52.0963 263.682C48.1459 264.94 44.715 267.393 42.312 270.678C39.909 273.965 38.6581 277.908 38.7456 281.933C38.8303 285.958 40.2507 289.849 42.792 293.035V293.178C43.2636 293.749 43.7662 294.292 44.2971 294.809C46.5872 297.069 49.4335 298.73 52.5679 299.637H50.5602V363.14L164.493 426.554C157.866 432.331 150.089 436.739 141.638 439.507C133.189 442.272 124.243 443.34 115.354 442.644L109.653 442.215L107.851 447.475C105.135 455.886 100.142 463.441 93.3937 469.357C86.6421 475.271 78.377 479.328 69.4596 481.11C49.3177 484.627 28.3203 474.566 17.0987 456.79L67.3051 431.842C70.2305 433.569 73.5907 434.487 77.0188 434.501C82.2342 434.318 87.1787 432.205 90.8326 428.601C94.4865 424.997 96.5705 420.171 96.658 415.124C96.4632 410.451 94.4639 406.022 91.0557 402.707C87.6474 399.395 83.0757 397.441 78.2499 397.234C73.4241 397.023 68.6915 398.576 64.9924 401.584C61.2905 404.59 58.8903 408.831 58.2662 413.465C58.1391 414.326 58.0686 415.195 58.0601 416.067C58.0714 417.471 58.2493 418.873 58.5909 420.239L14.6194 442.103V43.2309C18.7986 34.8067 25.2706 27.6438 33.3409 22.5113C38.7541 19.4739 44.6077 17.239 50.707 15.8811V123.708C46.5759 125.361 43.1676 128.349 41.0582 132.163C38.9517 135.976 38.274 140.379 39.1466 144.621C40.0163 148.863 42.3798 152.681 45.836 155.425C49.2895 158.169 53.6211 159.669 58.0912 159.669C62.5583 159.669 66.89 158.169 70.3434 155.425C73.7997 152.681 76.1632 148.863 77.0329 144.621C77.9054 140.379 77.2277 135.976 75.1212 132.163C73.0119 128.349 69.6036 125.361 65.4724 123.708V14.4236C72.3906 14.6308 79.1676 16.3607 85.2896 19.482C91.3973 22.8038 96.7625 27.2649 101.077 32.6069C105.389 37.9491 108.566 44.0662 110.421 50.6039L111.661 54.9766L116.297 55.7483C146.125 60.5494 165.439 71.1805 173.71 87.3559C184.282 108.075 174.035 132.796 170.756 139.512L128.199 161.889V121.136C132.17 119.5 135.454 116.622 137.532 112.962L137.71 112.677C137.916 112.305 138.094 111.905 138.269 111.533C138.447 111.162 138.712 110.533 138.89 110.019C139.068 109.504 139.037 109.676 139.096 109.533C139.35 108.689 139.548 107.829 139.686 106.961C139.847 106.016 139.935 105.061 139.952 104.103C139.929 100.767 138.972 97.5 137.187 94.6475C135.4 91.795 132.847 89.4633 129.803 87.8994C126.759 86.3358 123.334 85.5983 119.889 85.7653C116.447 85.932 113.115 86.9971 110.249 88.8476C107.38 90.6978 105.081 93.2645 103.599 96.2756C102.116 99.2869 101.501 102.63 101.823 105.952C102.142 109.273 103.384 112.448 105.42 115.142C107.453 117.835 110.201 119.946 113.375 121.25V169.834L64.0549 195.697C61.2058 193.731 57.8483 192.561 54.3582 192.316C50.8652 192.072 47.3693 192.762 44.2576 194.312C41.143 195.861 38.531 198.21 36.704 201.101C34.877 203.991 33.9085 207.313 33.9029 210.701C33.9029 210.958 33.9029 211.187 33.9029 211.415C33.8012 213.899 34.2191 216.377 35.134 218.7C36.0461 221.024 37.4325 223.145 39.2143 224.937C40.9933 226.729 43.1281 228.154 45.4915 229.128C47.855 230.102 50.3964 230.604 52.966 230.604C55.5356 230.604 58.077 230.102 60.4405 229.128C62.804 228.154 64.9388 226.729 66.7177 224.937C68.4995 223.145 69.886 221.024 70.798 218.7C71.7129 216.377 72.1309 213.899 72.0292 211.415C72.0292 211.187 72.0292 210.958 72.0292 210.73C72.0236 209.773 71.9445 208.818 71.792 207.872L178.375 151.772C192.894 151.343 207.039 156.267 217.947 165.547C223.349 170.379 227.601 176.288 230.411 182.866L174.978 212.33V272.859C171.493 274.244 168.508 276.599 166.405 279.627C164.304 282.654 163.174 286.218 163.166 289.863C163.121 290.625 163.121 291.388 163.166 292.15C163.702 296.826 166.063 301.124 169.768 304.171C173.47 307.217 178.233 308.783 183.087 308.545C187.942 308.308 192.519 306.288 195.885 302.895C199.253 299.503 201.154 294.995 201.202 290.292C201.196 289.336 201.117 288.379 200.968 287.434C200.982 287.234 200.982 287.035 200.968 286.835C200.922 286.576 200.863 286.316 200.79 286.062C200.149 283.16 198.79 280.449 196.831 278.165C194.871 275.88 192.369 274.091 189.537 272.945V220.675L234.248 196.926C235.124 202.389 235.369 207.929 234.988 213.445Z" fill="url(#paint0_linear_934_151)"/>
<defs>
<linearGradient id="paint0_linear_934_151" x1="8.69395" y1="248.006" x2="640.795" y2="248.006" gradientUnits="userSpaceOnUse">
<stop stop-color="#000093" stop-opacity="0"/>
<stop offset="0.596154" stop-color="#000093"/>
</linearGradient>
</defs>
</svg>
