<svg width="38" height="29" viewBox="0 0 38 29" fill="none" xmlns="http://www.w3.org/2000/svg">
<path d="M14.25 14.5C16.1397 14.5 17.9519 13.7362 19.2881 12.3765C20.6243 11.0169 21.375 9.17282 21.375 7.25C21.375 5.32718 20.6243 3.48311 19.2881 2.12348C17.9519 0.763837 16.1397 0 14.25 0C12.3603 0 10.5481 0.763837 9.21186 2.12348C7.87567 3.48311 7.125 5.32718 7.125 7.25C7.125 9.17282 7.87567 11.0169 9.21186 12.3765C10.5481 13.7362 12.3603 14.5 14.25 14.5ZM2.375 29C2.375 29 0 29 0 26.5833C0 24.1667 2.375 16.9167 14.25 16.9167C26.125 16.9167 28.5 24.1667 28.5 26.5833C28.5 29 26.125 29 26.125 29H2.375ZM26.125 3.625C26.125 3.30453 26.2501 2.99719 26.4728 2.77058C26.6955 2.54397 26.9976 2.41667 27.3125 2.41667H36.8125C37.1274 2.41667 37.4295 2.54397 37.6522 2.77058C37.8749 2.99719 38 3.30453 38 3.625C38 3.94547 37.8749 4.25281 37.6522 4.47942C37.4295 4.70603 37.1274 4.83333 36.8125 4.83333H27.3125C26.9976 4.83333 26.6955 4.70603 26.4728 4.47942C26.2501 4.25281 26.125 3.94547 26.125 3.625ZM27.3125 9.66667C26.9976 9.66667 26.6955 9.79397 26.4728 10.0206C26.2501 10.2472 26.125 10.5545 26.125 10.875C26.125 11.1955 26.2501 11.5028 26.4728 11.7294C26.6955 11.956 26.9976 12.0833 27.3125 12.0833H36.8125C37.1274 12.0833 37.4295 11.956 37.6522 11.7294C37.8749 11.5028 38 11.1955 38 10.875C38 10.5545 37.8749 10.2472 37.6522 10.0206C37.4295 9.79397 37.1274 9.66667 36.8125 9.66667H27.3125ZM32.0625 16.9167C31.7476 16.9167 31.4455 17.044 31.2228 17.2706C31.0001 17.4972 30.875 17.8045 30.875 18.125C30.875 18.4455 31.0001 18.7528 31.2228 18.9794C31.4455 19.206 31.7476 19.3333 32.0625 19.3333H36.8125C37.1274 19.3333 37.4295 19.206 37.6522 18.9794C37.8749 18.7528 38 18.4455 38 18.125C38 17.8045 37.8749 17.4972 37.6522 17.2706C37.4295 17.044 37.1274 16.9167 36.8125 16.9167H32.0625ZM32.0625 24.1667C31.7476 24.1667 31.4455 24.294 31.2228 24.5206C31.0001 24.7472 30.875 25.0545 30.875 25.375C30.875 25.6955 31.0001 26.0028 31.2228 26.2294C31.4455 26.456 31.7476 26.5833 32.0625 26.5833H36.8125C37.1274 26.5833 37.4295 26.456 37.6522 26.2294C37.8749 26.0028 38 25.6955 38 25.375C38 25.0545 37.8749 24.7472 37.6522 24.5206C37.4295 24.294 37.1274 24.1667 36.8125 24.1667H32.0625Z" fill="#CE0F0F"/>
</svg>
