<svg width="40" height="40" viewBox="0 0 40 40" fill="none" xmlns="http://www.w3.org/2000/svg">
<path d="M20 39C14.9609 39 10.1282 36.9982 6.56497 33.435C3.00178 29.8718 1 25.0391 1 20C1 14.9609 3.00178 10.1282 6.56497 6.56497C10.1282 3.00178 14.9609 1 20 1C25.0391 1 29.8718 2.8016 33.435 6.00847C36.9982 9.21535 39 13.5648 39 18.1C39 20.6196 37.9991 23.0359 36.2175 24.8175C34.4359 26.5991 32.0196 27.6 29.5 27.6H25.225C24.6075 27.6 24.0022 27.7719 23.4769 28.0966C22.9517 28.4212 22.5272 28.8857 22.251 29.438C21.9749 29.9903 21.858 30.6086 21.9134 31.2236C21.9689 31.8386 22.1945 32.426 22.565 32.92L23.135 33.68C23.5055 34.174 23.7311 34.7614 23.7866 35.3764C23.842 35.9914 23.7251 36.6097 23.449 37.162C23.1728 37.7143 22.7483 38.1788 22.2231 38.5034C21.6978 38.8281 21.0925 39 20.475 39H20Z" stroke="#CE0F0F" stroke-width="2" stroke-linecap="round" stroke-linejoin="round"/>
<path d="M22.8499 10.5001C23.3746 10.5001 23.7999 10.0748 23.7999 9.5501C23.7999 9.02543 23.3746 8.6001 22.8499 8.6001C22.3252 8.6001 21.8999 9.02543 21.8999 9.5501C21.8999 10.0748 22.3252 10.5001 22.8499 10.5001Z" fill="#CE0F0F" stroke="#CE0F0F" stroke-width="2" stroke-linecap="round" stroke-linejoin="round"/>
<path d="M30.45 18.1002C30.9747 18.1002 31.4 17.6749 31.4 17.1502C31.4 16.6255 30.9747 16.2002 30.45 16.2002C29.9253 16.2002 29.5 16.6255 29.5 17.1502C29.5 17.6749 29.9253 18.1002 30.45 18.1002Z" fill="#CE0F0F" stroke="#CE0F0F" stroke-width="2" stroke-linecap="round" stroke-linejoin="round"/>
<path d="M9.5501 21.9C10.0748 21.9 10.5001 21.4747 10.5001 20.95C10.5001 20.4253 10.0748 20 9.5501 20C9.02543 20 8.6001 20.4253 8.6001 20.95C8.6001 21.4747 9.02543 21.9 9.5501 21.9Z" fill="#CE0F0F" stroke="#CE0F0F" stroke-width="2" stroke-linecap="round" stroke-linejoin="round"/>
<path d="M13.3499 12.4C13.8746 12.4 14.2999 11.9747 14.2999 11.45C14.2999 10.9253 13.8746 10.5 13.3499 10.5C12.8252 10.5 12.3999 10.9253 12.3999 11.45C12.3999 11.9747 12.8252 12.4 13.3499 12.4Z" fill="#CE0F0F" stroke="#CE0F0F" stroke-width="2" stroke-linecap="round" stroke-linejoin="round"/>
</svg>
