<svg width="38" height="38" viewBox="0 0 38 38" fill="none" xmlns="http://www.w3.org/2000/svg">
<path d="M10.3437 19.8445H27.6548V23.0956H29.3437V18.1556H19.8437V14.7778H18.1548V18.1556H8.65479V23.0956H10.3437V19.8445Z" fill="#CE0F0F"/>
<path d="M14.778 24.2778H4.22244C3.66254 24.2778 3.12557 24.5003 2.72966 24.8962C2.33375 25.2921 2.11133 25.829 2.11133 26.3889V32.7223C2.11133 33.2822 2.33375 33.8191 2.72966 34.2151C3.12557 34.611 3.66254 34.8334 4.22244 34.8334H14.778C15.3379 34.8334 15.8749 34.611 16.2708 34.2151C16.6667 33.8191 16.8891 33.2822 16.8891 32.7223V26.3889C16.8891 25.829 16.6667 25.2921 16.2708 24.8962C15.8749 24.5003 15.3379 24.2778 14.778 24.2778ZM4.22244 32.7223V26.3889H14.778V32.7223H4.22244Z" fill="#CE0F0F"/>
<path d="M33.778 24.2778H23.2224C22.6625 24.2778 22.1256 24.5003 21.7297 24.8962C21.3337 25.2921 21.1113 25.829 21.1113 26.3889V32.7223C21.1113 33.2822 21.3337 33.8191 21.7297 34.2151C22.1256 34.611 22.6625 34.8334 23.2224 34.8334H33.778C34.3379 34.8334 34.8749 34.611 35.2708 34.2151C35.6667 33.8191 35.8891 33.2822 35.8891 32.7223V26.3889C35.8891 25.829 35.6667 25.2921 35.2708 24.8962C34.8749 24.5003 34.3379 24.2778 33.778 24.2778ZM23.2224 32.7223V26.3889H33.778V32.7223H23.2224Z" fill="#CE0F0F"/>
<path d="M13.7224 13.7221H24.278C24.8379 13.7221 25.3749 13.4996 25.7708 13.1037C26.1667 12.7078 26.3891 12.1708 26.3891 11.6109V5.27762C26.3891 4.71771 26.1667 4.18074 25.7708 3.78483C25.3749 3.38892 24.8379 3.1665 24.278 3.1665H13.7224C13.1625 3.1665 12.6256 3.38892 12.2297 3.78483C11.8337 4.18074 11.6113 4.71771 11.6113 5.27762V11.6109C11.6113 12.1708 11.8337 12.7078 12.2297 13.1037C12.6256 13.4996 13.1625 13.7221 13.7224 13.7221ZM13.7224 5.27762H24.278V11.6109H13.7224V5.27762Z" fill="#CE0F0F"/>
</svg>
