<svg width="38" height="36" viewBox="0 0 38 36" fill="none" xmlns="http://www.w3.org/2000/svg">
<path fill-rule="evenodd" clip-rule="evenodd" d="M3.46631 5.1549C3.46631 3.78773 4.00941 2.47657 4.97615 1.50983C5.94288 0.543104 7.25405 0 8.62122 0H32.8452C34.2123 0 35.5235 0.543104 36.4902 1.50983C37.457 2.47657 38.0001 3.78773 38.0001 5.1549V20.9309C38.0001 22.2981 37.457 23.6093 36.4902 24.576C35.5235 25.5427 34.2123 26.0858 32.8452 26.0858H22.7952V30.783C22.7952 31.3298 22.5779 31.8543 22.1912 32.241C21.8045 32.6277 21.2801 32.8449 20.7332 32.8449C20.1863 32.8449 19.6619 32.6277 19.2752 32.241C18.8885 31.8543 18.6712 31.3298 18.6712 30.783V25.6301C18.3381 25.3629 18.0962 24.9988 17.9789 24.5882C17.8616 24.1775 17.8747 23.7406 18.0164 23.3377C18.1581 22.9349 18.4214 22.5859 18.7699 22.3391C19.1184 22.0923 19.535 21.9598 19.962 21.9599H32.8452C33.1186 21.9599 33.3808 21.8512 33.5742 21.6579C33.7675 21.4645 33.8762 21.2023 33.8762 20.9289V5.1549C33.8762 4.88146 33.7675 4.61923 33.5742 4.42588C33.3808 4.23254 33.1186 4.12392 32.8452 4.12392H8.62122C8.34779 4.12392 8.08555 4.23254 7.89221 4.42588C7.69886 4.61923 7.59024 4.88146 7.59024 5.1549V8.24784C7.59024 8.7947 7.373 9.31917 6.9863 9.70586C6.59961 10.0926 6.07514 10.3098 5.52827 10.3098C4.98141 10.3098 4.45694 10.0926 4.07024 9.70586C3.68355 9.31917 3.46631 8.7947 3.46631 8.24784V5.1549Z" fill="#B70003"/>
<path fill-rule="evenodd" clip-rule="evenodd" d="M11.0687 32.1467C11.0687 31.5999 11.286 31.0754 11.6727 30.6887C12.0594 30.302 12.5838 30.0848 13.1307 30.0848H28.3356C28.8825 30.0848 29.407 30.302 29.7937 30.6887C30.1804 31.0754 30.3976 31.5999 30.3976 32.1467C30.3976 32.6936 30.1804 33.2181 29.7937 33.6048C29.407 33.9915 28.8825 34.2087 28.3356 34.2087H13.1307C12.5838 34.2087 12.0594 33.9915 11.6727 33.6048C11.286 33.2181 11.0687 32.6936 11.0687 32.1467ZM11.5842 15.2222C11.0588 14.928 10.48 14.7417 9.88159 14.6742C9.28321 14.6067 8.67739 14.6595 8.09967 14.8293C7.52194 14.9991 6.98396 15.2826 6.51728 15.6631C6.0506 16.0437 5.66462 16.5136 5.38201 17.0453C5.09939 17.5771 4.92582 18.1599 4.87149 18.7596C4.81715 19.3593 4.88315 19.9638 5.0656 20.5377C5.24805 21.1115 5.54327 21.6432 5.93396 22.1014C6.32465 22.5596 6.80292 22.9352 7.34072 23.2061C8.39646 23.7379 9.61846 23.8351 10.745 23.4769C11.8716 23.1188 12.813 22.3337 13.3679 21.2899C13.9227 20.246 14.0466 19.0265 13.7133 17.8923C13.3799 16.7582 12.6157 15.7997 11.5842 15.2222ZM1.82702 15.1562C2.58836 13.7248 3.73684 12.5363 5.14135 11.7264C6.54587 10.9164 8.14981 10.5178 9.77007 10.5759C11.3903 10.634 12.9616 11.1465 14.3045 12.0549C15.6474 12.9633 16.7079 14.231 17.3647 15.7132C18.0216 17.1955 18.2485 18.8326 18.0194 20.4376C17.7903 22.0427 17.1146 23.5509 16.0693 24.7903C15.024 26.0296 13.6513 26.9501 12.1079 27.4466C10.5645 27.943 8.91254 27.9955 7.34072 27.5981L3.8828 34.1035C3.75567 34.3426 3.58269 34.5544 3.37374 34.7266C3.16478 34.8989 2.92395 35.0283 2.66498 35.1074C2.40602 35.1866 2.13399 35.214 1.86444 35.188C1.59489 35.1621 1.33309 35.0833 1.094 34.9562C0.854896 34.829 0.643178 34.656 0.470929 34.4471C0.298681 34.2381 0.169277 33.9973 0.0901032 33.7383C0.0109299 33.4794 -0.0164612 33.2074 0.00949368 32.9378C0.0354486 32.6683 0.114241 32.4065 0.241373 32.1674L3.69929 25.6619C2.25712 24.3725 1.28892 22.6368 0.949511 20.7323C0.610099 18.8277 0.91907 16.8644 1.82702 15.1562Z" fill="#B70003"/>
</svg>
