<svg width="363" height="125" viewBox="0 0 363 125" fill="none" xmlns="http://www.w3.org/2000/svg">
<path d="M149.294 51.0901V45.085H155.848V51.0901H149.294ZM149.294 78.9423V54.4317H155.848V78.9423H149.294Z" fill="#CE0F0F"/>
<path d="M170.33 78.9431V50.8129H160.176V45.0938H187.367V50.8129H177.239V78.9431H170.33Z" fill="#CE0F0F"/>
<path d="M188.38 69.915V63.4277H201.265V69.915H188.38Z" fill="#F6F6F6"/>
<path d="M205.146 78.9423V45.085H228.598V50.8041H212.089V58.8191H226.369V64.5383H212.089V78.9259L205.146 78.9423Z" fill="#F6F6F6"/>
<path d="M232.728 66.3345C232.748 64.1455 233.315 61.9955 234.379 60.0761C235.396 58.1156 236.987 56.5041 238.943 55.4517C240.972 54.3738 243.245 53.8255 245.547 53.8586C247.252 53.8014 248.949 54.0933 250.535 54.7162C252.12 55.339 253.558 56.2793 254.759 57.478C255.951 58.6816 256.884 60.1113 257.502 61.6811C258.12 63.2509 258.412 64.9282 258.359 66.6123C258.411 68.3127 258.117 70.0062 257.492 71.591C256.868 73.1758 255.928 74.6198 254.726 75.8365C253.534 77.0394 252.101 77.9834 250.519 78.6085C248.937 79.2328 247.241 79.5245 245.539 79.4637C243.283 79.4672 241.058 78.9466 239.042 77.9445C237.039 76.9813 235.392 75.4177 234.337 73.475C233.21 71.2644 232.657 68.81 232.728 66.3345ZM239.447 66.6777C239.447 69.1127 240.03 70.9755 241.197 72.2659C241.734 72.8759 242.396 73.365 243.14 73.7004C243.884 74.0351 244.693 74.2086 245.51 74.2086C246.328 74.2086 247.135 74.0351 247.879 73.7004C248.623 73.365 249.286 72.8759 249.823 72.2659C250.979 70.9755 251.565 69.0963 251.565 66.6368C251.565 64.1776 250.979 62.3801 249.823 61.0893C249.285 60.4804 248.622 59.9925 247.878 59.6582C247.134 59.3239 246.327 59.151 245.51 59.151C244.693 59.151 243.885 59.3239 243.142 59.6582C242.398 59.9925 241.734 60.4804 241.197 61.0893C240.033 62.3801 239.447 64.2511 239.447 66.6777Z" fill="#F6F6F6"/>
<path d="M269.715 78.9412H263.16V54.4305H269.244V57.9192C269.945 56.6499 270.904 55.5374 272.058 54.6511C272.905 54.1112 273.892 53.8273 274.899 53.8341C276.424 53.8445 277.917 54.2684 279.216 55.0597L277.185 60.7216C276.281 60.0809 275.208 59.7121 274.098 59.6595C273.257 59.6324 272.433 59.8984 271.77 60.4111C270.996 61.1393 270.468 62.0868 270.259 63.1236C269.896 64.4309 269.715 67.1706 269.715 71.3431V78.9412Z" fill="#F6F6F6"/>
<path d="M281.539 54.4146H287.581V57.7644C289.744 55.1663 292.32 53.8645 295.308 53.8591C296.746 53.8247 298.168 54.1597 299.435 54.8313C300.652 55.523 301.648 56.5394 302.308 57.7644C303.27 56.5602 304.469 55.5622 305.833 54.8313C307.079 54.1885 308.464 53.8548 309.869 53.8591C311.483 53.8078 313.08 54.1889 314.492 54.9621C315.761 55.7032 316.752 56.8332 317.315 58.1811C317.857 59.8189 318.087 61.5421 317.992 63.263V78.9416H311.479V64.9215C311.479 62.4705 311.248 60.9181 310.802 60.2155C310.5 59.7592 310.081 59.3904 309.588 59.1464C309.095 58.9025 308.545 58.7921 307.995 58.8265C307.069 58.8244 306.166 59.1102 305.412 59.6436C304.565 60.2412 303.948 61.1052 303.662 62.0946C303.228 63.7499 303.045 65.4597 303.117 67.1683V78.9416H296.563V65.5016C296.64 63.9547 296.523 62.4042 296.216 60.8855C296.033 60.2647 295.65 59.7199 295.126 59.3331C294.531 58.9683 293.837 58.7916 293.137 58.8265C292.164 58.8166 291.21 59.1017 290.405 59.6436C289.577 60.208 288.963 61.0306 288.663 61.9803C288.241 63.6319 288.066 65.3358 288.143 67.0376V78.9498H281.58L281.539 54.4146Z" fill="#F6F6F6"/>
<path d="M329.42 61.8978L323.468 60.8358C323.959 58.7334 325.184 56.87 326.927 55.5741C328.578 54.4303 330.988 53.8584 334.208 53.8584C337.13 53.8584 339.307 54.2015 340.737 54.8878C342 55.4185 343.058 56.3345 343.758 57.5023C344.347 58.559 344.639 60.4926 344.633 63.3031L344.567 70.8848C344.528 72.4819 344.633 74.0783 344.881 75.6562C345.132 76.7909 345.529 77.8893 346.061 78.9249H339.54C339.367 78.5 339.16 77.8545 338.904 77.0129C338.797 76.629 338.723 76.3755 338.674 76.2451C337.641 77.2759 336.423 78.1065 335.083 78.6961C333.791 79.2405 332.401 79.5185 330.996 79.513C328.792 79.6333 326.628 78.8976 324.962 77.4624C324.243 76.8004 323.674 75.9951 323.295 75.0988C322.914 74.2033 322.732 73.2374 322.758 72.266C322.737 70.9606 323.086 69.6757 323.765 68.5567C324.431 67.4696 325.408 66.6025 326.572 66.0647C328.24 65.3458 329.993 64.8353 331.789 64.545C333.961 64.2022 336.095 63.6551 338.162 62.911V62.3063C338.211 61.822 338.153 61.333 337.991 60.8731C337.83 60.4131 337.57 59.9934 337.229 59.6429C336.609 59.1118 335.429 58.8259 333.704 58.8259C332.745 58.7725 331.792 59.009 330.971 59.504C330.221 60.1279 329.68 60.9627 329.42 61.8978ZM338.195 67.2085C337.353 67.4863 336.023 67.8159 334.208 68.1971C332.963 68.3839 331.755 68.7678 330.633 69.3328C330.241 69.5739 329.917 69.9113 329.693 70.3116C329.468 70.7119 329.352 71.1628 329.354 71.6205C329.35 72.0617 329.439 72.4989 329.615 72.904C329.791 73.3091 330.051 73.6732 330.377 73.9738C330.724 74.3037 331.134 74.5612 331.584 74.7313C332.034 74.9014 332.513 74.98 332.994 74.9622C334.218 74.9465 335.404 74.5428 336.379 73.8098C337.125 73.2852 337.674 72.529 337.939 71.6614C338.157 70.6218 338.243 69.5595 338.195 68.4994V67.2085Z" fill="#F6F6F6"/>
<path d="M362.463 54.4158V59.5875H357.981V69.4737C357.941 70.6432 357.985 71.8147 358.112 72.9787C358.2 73.3127 358.409 73.6037 358.699 73.7957C359.023 74.0184 359.411 74.1332 359.805 74.1222C360.711 74.0532 361.6 73.8408 362.438 73.4931L363 78.5262C361.36 79.1984 359.598 79.5297 357.824 79.4982C356.727 79.5146 355.638 79.3145 354.621 78.9101C353.794 78.6075 353.071 78.0808 352.532 77.3902C352.039 76.6244 351.726 75.7589 351.616 74.8579C351.432 73.3401 351.36 71.8106 351.401 70.2825V59.5875H348.389V54.4158H351.401V49.5136L358.005 45.7227V54.383L362.463 54.4158Z" fill="#F6F6F6"/>
<path d="M61.6157 9.90604C60.3156 7.05886 58.2223 4.63761 55.5813 2.92613C55.2493 2.7118 47.3743 -2.22487 39.2756 2.00451C36.7971 3.31335 34.7221 5.26097 33.2701 7.64128C33.0041 7.58731 32.7333 7.55862 32.4617 7.55555C31.428 7.55555 30.4366 7.96206 29.7055 8.68554C28.9746 9.40901 28.5639 10.3903 28.5639 11.4134C28.5639 11.4849 28.5639 11.5564 28.5639 11.6278C22.3924 13.3353 18.1987 16.3287 16.0982 20.5652C13.4853 25.8234 14.8207 31.5459 15.9828 34.7465C12.2998 35.0764 8.82463 36.5807 6.07951 39.033C3.35828 41.505 0.232831 46.0915 0.76697 53.8788C0.850571 55.1324 1.06095 56.3745 1.39494 57.5866C0.891214 58.0971 0.507476 58.7112 0.271056 59.3853C0.0346368 60.0594 -0.048643 60.7768 0.027185 61.4864C0.103013 62.1959 0.33608 62.8803 0.709742 63.4904C1.08341 64.1006 1.58846 64.6218 2.18894 65.0166C0.827885 68.7196 0.648997 72.7471 1.67646 76.5548C2.54886 79.5618 4.12686 82.3229 6.28184 84.612C8.43683 86.9017 11.1078 88.6546 14.0772 89.7284C14.2333 89.9702 14.4148 90.1957 14.6185 90.3999C13.5647 93.4438 12.5036 98.7734 15.1455 104.26C16.5489 107.038 18.637 109.421 21.217 111.189C23.7969 112.957 26.7854 114.053 29.9065 114.376C30.257 114.922 30.7411 115.371 31.3141 115.682C31.887 115.993 32.5301 116.156 33.1835 116.155H33.2557C34.3631 118.174 35.9081 119.926 37.78 121.284C39.6518 122.643 41.8043 123.576 44.0829 124.013C44.9427 124.168 45.8148 124.244 46.6887 124.242C49.8616 124.177 52.9499 123.217 55.5904 121.474C58.2308 119.732 60.3137 117.279 61.594 114.405L61.7528 114.062V10.2775L61.6157 9.90604ZM40.9358 5.11226C47.1578 1.86163 53.5458 5.82667 53.6036 5.86955C55.2873 6.96022 56.6871 8.4289 57.689 10.1561L44.4582 20.158C43.3222 19.5063 42.0323 19.1637 40.7193 19.165C39.953 19.165 39.1911 19.2806 38.46 19.5079L35.4717 13.7925C36.0289 13.1165 36.3347 12.2716 36.3379 11.3992C36.3328 10.9092 36.2349 10.4245 36.0492 9.97032C37.1658 7.91493 38.8641 6.22664 40.9358 5.11226ZM43.1012 51.3497C42.6118 50.3245 41.8254 49.4665 40.842 48.885L41.34 33.9964C42.2066 33.934 43.0548 33.7186 43.8447 33.3605L56.166 47.7704L43.1012 51.3497ZM21.0932 86.7207C21.0546 86.5554 21.004 86.3928 20.9416 86.235L27.1347 76.3758L39.0807 83.8127C38.9357 84.295 38.8414 84.791 38.7992 85.2917L21.0932 86.7207ZM35.8904 32.2961C36.4508 32.7604 37.0754 33.1429 37.7454 33.432L37.2545 48.0991C36.5949 48.1659 35.9523 48.3473 35.3562 48.6349L27.0265 41.112L35.8904 32.2961ZM32.7577 51.0854C32.2939 51.9147 32.0459 52.8452 32.0358 53.7931L9.99171 57.9724L24.428 43.591L32.7577 51.0854ZM33.2341 57.2294C33.5349 57.6187 33.8814 57.9713 34.2662 58.2796L25.9655 71.4609L10.1288 61.5945L33.2341 57.2294ZM46.3494 78.5119H46.2844C45.2815 78.5112 44.2886 78.7106 43.3649 79.0973C42.4411 79.4832 41.6052 80.0502 40.9069 80.7627L29.0259 73.3613L37.7237 59.5156H37.8537C38.8009 59.513 39.7329 59.28 40.5677 58.8368L48.4643 67.3385L46.3494 78.5119ZM19.3175 22.1084C21.0644 18.5934 24.8394 16.1286 30.5634 14.7498C31.0646 15.0197 31.6183 15.1804 32.1875 15.2213L35.3923 21.3439C34.3495 22.3763 33.6378 23.6904 33.3463 25.1214C33.0549 26.5524 33.1966 28.0367 33.7538 29.3884L24.3702 38.6758L19.7723 34.5679C18.8267 32.3246 16.9644 26.8236 19.3175 22.1012V22.1084ZM8.49038 41.6193C11.2351 39.2391 14.8065 38.007 18.4514 38.1829L21.8294 41.2335L6.57757 56.3935C6.03697 56.1953 5.46504 56.0936 4.88851 56.0935H4.71528C4.51987 55.274 4.39194 54.4401 4.33273 53.6002C3.90685 47.2203 6.36823 43.5553 8.50481 41.6121L8.49038 41.6193ZM5.1195 75.5902C4.26169 72.3161 4.48427 68.8569 5.75469 65.7168C6.6591 65.5642 7.50199 65.1632 8.18719 64.5594L24.1176 74.4754L18.1843 83.8633C17.907 83.8011 17.624 83.767 17.3398 83.7629C16.6496 83.7643 15.9724 83.9494 15.3794 84.2991C14.7863 84.6482 14.2991 85.1496 13.9689 85.7493C11.8477 84.778 9.96141 83.368 8.43738 81.6145C6.91328 79.861 5.78686 77.8042 5.13394 75.5827L5.1195 75.5902ZM18.3719 102.703C16.7504 99.1307 16.6284 95.0683 18.0327 91.4075C18.7977 91.2709 19.5026 90.9068 20.0538 90.3644L39.3261 88.8138C39.8681 90.0932 40.7607 91.1971 41.903 92.0004L33.7177 108.504C33.5415 108.47 33.3629 108.451 33.1835 108.446C32.4335 108.447 31.6997 108.663 31.0708 109.067C30.4419 109.471 29.9448 110.047 29.6394 110.726C27.2483 110.385 24.976 109.477 23.0164 108.079C21.0568 106.68 19.4683 104.833 18.3864 102.695L18.3719 102.703ZM44.7325 120.513C42.9803 120.172 41.3259 119.452 39.8873 118.404C38.4487 117.357 37.2614 116.009 36.41 114.455C36.7949 113.893 37.0213 113.24 37.0657 112.563C37.1101 111.886 36.9709 111.21 36.6626 110.604L45.2378 93.3079C45.577 93.3591 45.9196 93.3851 46.2628 93.3865C46.8337 93.3844 47.4025 93.3195 47.959 93.1931L57.9633 113.662C55.3793 118.584 49.944 121.442 44.7325 120.513ZM58.1654 105.917L51.1638 91.5858C52.3381 90.5837 53.1701 89.2462 53.5458 87.757L58.1654 87.4496V105.917ZM58.1654 83.8845L53.5675 84.1919C53.3166 83.1747 52.8528 82.2218 52.2063 81.3932C51.5597 80.5653 50.7448 79.8808 49.8141 79.3835L51.4742 70.5961L58.1654 77.8048V83.8845ZM58.1654 72.5538L43.0074 56.2578C43.2138 55.8295 43.3689 55.3787 43.4694 54.9147L58.1366 50.8996L58.1654 72.5538ZM58.1654 44.6913L46.6165 31.1887C47.5708 29.9843 48.1249 28.5168 48.2025 26.9881C48.28 25.4593 47.8773 23.9443 47.0495 22.6513L58.1582 14.264L58.1654 44.6913Z" fill="#CE0F0F"/>
<path d="M121.597 38.7553C118.849 36.306 115.376 34.8022 111.694 34.4687C112.856 31.2681 114.191 25.5456 111.578 20.2875C109.138 15.3722 103.898 12.1216 95.9944 10.6213C94.6941 6.81207 91.99 3.62826 88.4225 1.70533C80.3234 -2.52406 72.4486 2.41974 72.1166 2.62693C69.4657 4.34886 67.3652 6.7823 66.0606 9.64255L65.8945 9.99265V113.813L66.0533 114.156C67.3337 117.03 69.4167 119.482 72.0573 121.225C74.6971 122.968 77.7857 123.928 80.959 123.993C81.8328 123.995 82.7045 123.918 83.5644 123.765C86.1609 123.268 88.5916 122.138 90.6345 120.476C92.6781 118.814 94.2696 116.673 95.2649 114.248H95.4167C102.779 114.248 109.55 110.255 112.567 103.982C115.332 98.2665 114.046 92.6657 112.95 89.6936C115.706 88.8561 118.241 87.4236 120.371 85.4986C122.501 83.5743 124.173 81.206 125.266 78.5644C126.359 75.9229 126.846 73.0743 126.692 70.2237C126.538 67.3734 125.747 64.5923 124.375 62.0812C125.852 59.4709 126.73 56.5706 126.946 53.5868C127.443 45.8138 124.318 41.2272 121.597 38.7553ZM123.329 53.3581C123.124 56.1185 122.239 58.7872 120.752 61.131L120.182 62.0383L120.731 62.96C122.052 65.0928 122.843 67.5051 123.04 69.999C123.237 72.493 122.834 74.998 121.864 77.3082C120.894 79.6178 119.385 81.6678 117.461 83.2895C115.536 84.9105 113.25 86.0574 110.791 86.636L97.2498 77.5343V66.9607C98.2077 66.4781 98.9669 65.6825 99.3997 64.7089C99.8317 63.7353 99.9111 62.6436 99.6226 61.619C99.3348 60.5943 98.6971 59.6999 97.8185 59.0874C96.9406 58.4748 95.875 58.1819 94.8031 58.2583C93.7313 58.3347 92.7195 58.7756 91.9383 59.5064C91.1577 60.2372 90.6566 61.2128 90.52 62.2676C90.3826 63.3226 90.6186 64.3918 91.188 65.2941C91.7567 66.1964 92.6236 66.8761 93.6409 67.2179V79.4204L109.037 89.7653C109.853 91.4942 111.924 96.9092 109.268 102.453C109.034 102.947 108.767 103.425 108.467 103.882L81.897 88.7222V74.9051H81.4063C82.3842 74.6311 83.2483 74.0539 83.8702 73.2574C84.492 72.4616 84.8392 71.4889 84.8613 70.4826C84.8833 69.4764 84.5783 68.49 83.9916 67.6685C83.4043 66.8468 82.5671 66.2331 81.6016 65.9177C80.636 65.6024 79.5939 65.602 78.6277 65.9166C77.6621 66.2313 76.8236 66.8444 76.2362 67.6657C75.6489 68.4873 75.3431 69.473 75.3645 70.4792C75.3852 71.4854 75.7324 72.4582 76.3536 73.2547V73.2902C76.4688 73.433 76.5917 73.5689 76.7214 73.698C77.2811 74.2629 77.9768 74.6783 78.7429 74.9051H78.2522V90.7797L106.099 106.632C104.479 108.077 102.579 109.178 100.513 109.87C98.4479 110.562 96.2615 110.829 94.0888 110.655L92.6954 110.547L92.255 111.862C91.5911 113.965 90.3709 115.854 88.7214 117.333C87.0712 118.811 85.0511 119.825 82.8715 120.271C77.9485 121.15 72.8164 118.635 70.0737 114.191L82.3449 107.954C83.0599 108.386 83.8812 108.616 84.7191 108.619C85.9938 108.573 87.2023 108.045 88.0954 107.144C88.9885 106.243 89.4978 105.037 89.5192 103.775C89.4716 102.607 88.9829 101.5 88.1499 100.671C87.3169 99.8431 86.1995 99.3547 85.02 99.3028C83.8405 99.2502 82.6838 99.6382 81.7797 100.39C80.8748 101.142 80.2882 102.202 80.1357 103.36C80.1046 103.576 80.0874 103.793 80.0853 104.011C80.0881 104.362 80.1315 104.712 80.215 105.054L69.4677 110.519V10.8071C70.4892 8.70117 72.0711 6.91055 74.0436 5.62751C75.3666 4.8682 76.7973 4.3095 78.2881 3.97005V30.9252C77.2784 31.3385 76.4453 32.0854 75.9298 33.0388C75.4149 33.9921 75.2493 35.0927 75.4625 36.1532C75.6751 37.2136 76.2528 38.1681 77.0976 38.8541C77.9416 39.5401 79.0004 39.9151 80.0929 39.9151C81.1847 39.9151 82.2435 39.5401 83.0875 38.8541C83.9323 38.1681 84.51 37.2136 84.7225 36.1532C84.9358 35.0927 84.7702 33.9921 84.2553 33.0388C83.7397 32.0854 82.9067 31.3385 81.897 30.9252V3.60569C83.5879 3.6575 85.2443 4.08995 86.7406 4.87021C88.2334 5.70063 89.5447 6.81584 90.5993 8.15127C91.6532 9.48674 92.4297 11.0159 92.8831 12.6503L93.1861 13.7434L94.3193 13.9363C101.61 15.1365 106.33 17.7941 108.352 21.8377C110.936 27.0173 108.431 33.1971 107.63 34.876L97.2284 40.4699V30.2823C98.1988 29.8733 99.0014 29.1538 99.5094 28.239L99.5529 28.1676C99.6033 28.0747 99.6467 27.9747 99.6895 27.8818C99.733 27.7889 99.7979 27.6318 99.8414 27.5031C99.8848 27.3746 99.8773 27.4174 99.8918 27.3817C99.9539 27.1706 100.002 26.9558 100.036 26.7387C100.075 26.5024 100.097 26.2636 100.101 26.0243C100.095 25.1904 99.8614 24.3736 99.4252 23.6605C98.9883 22.9474 98.3644 22.3645 97.6204 21.9736C96.8764 21.5827 96.0392 21.3984 95.1972 21.4401C94.3559 21.4818 93.5415 21.748 92.841 22.2106C92.1398 22.6732 91.578 23.3148 91.2156 24.0675C90.8533 24.8203 90.7028 25.6561 90.7815 26.4864C90.8595 27.3166 91.1632 28.1105 91.6608 28.7838C92.1577 29.4571 92.8293 29.9847 93.605 30.3108V42.456L81.5505 48.9216C80.8541 48.4299 80.0335 48.1374 79.1805 48.0764C78.3267 48.0153 77.4723 48.1878 76.7118 48.5752C75.9505 48.9625 75.3121 49.5496 74.8655 50.2723C74.419 50.9949 74.1823 51.8252 74.1809 52.6723C74.1809 52.7366 74.1809 52.7937 74.1809 52.8508C74.1561 53.4717 74.2582 54.0912 74.4818 54.672C74.7047 55.2528 75.0436 55.7831 75.4791 56.231C75.9139 56.6789 76.4357 57.0353 77.0134 57.2787C77.591 57.5221 78.2122 57.6476 78.8402 57.6476C79.4683 57.6476 80.0894 57.5221 80.6671 57.2787C81.2448 57.0353 81.7665 56.6789 82.2014 56.231C82.6369 55.7831 82.9757 55.2528 83.1986 54.672C83.4223 54.0912 83.5244 53.4717 83.4996 52.8508C83.4996 52.7937 83.4996 52.7366 83.4996 52.6794C83.4982 52.4402 83.4789 52.2014 83.4416 51.965L109.492 37.9409C113.041 37.8336 116.498 39.0645 119.164 41.3844C120.484 42.5922 121.524 44.0694 122.21 45.7138L108.662 53.0795V68.211C107.81 68.557 107.081 69.1458 106.566 69.9027C106.053 70.6596 105.777 71.5503 105.775 72.4616C105.764 72.6522 105.764 72.8428 105.775 73.0334C105.906 74.2021 106.483 75.2767 107.388 76.0383C108.293 76.8 109.457 77.1914 110.644 77.132C111.83 77.0725 112.949 76.5677 113.772 75.7193C114.595 74.8716 115.06 73.7445 115.071 72.5688C115.07 72.3298 115.051 72.0907 115.014 71.8543C115.017 71.8045 115.017 71.7546 115.014 71.7047C115.003 71.6398 114.988 71.5749 114.971 71.5114C114.814 70.7859 114.482 70.1083 114.003 69.5372C113.524 68.9661 112.912 68.5187 112.22 68.2324V55.1656L123.148 49.2288C123.362 50.5944 123.422 51.9793 123.329 53.3581Z" fill="#000093"/>
</svg>
