<svg width="43" height="47" viewBox="0 0 43 47" fill="none" xmlns="http://www.w3.org/2000/svg">
<path d="M27.7998 2V10.6C27.7998 11.7404 28.2528 12.8342 29.0592 13.6406C29.8657 14.447 30.9594 14.9 32.0998 14.9H40.6998" stroke="#CE0F0F" stroke-width="3" stroke-linecap="round" stroke-linejoin="round"/>
<path d="M6.876 42.85C7.25249 43.5021 7.7936 44.0439 8.44521 44.4212C9.09682 44.7985 9.83609 44.9981 10.5891 45H36.3998C37.5402 45 38.634 44.547 39.4404 43.7406C40.2468 42.9342 40.6998 41.8404 40.6998 40.7V12.75L29.9498 2H10.5998C9.45937 2 8.36565 2.45303 7.55925 3.25944C6.75284 4.06585 6.2998 5.15957 6.2998 6.3V12.75M17.0498 36.4L13.8248 33.175" stroke="#CE0F0F" stroke-width="3" stroke-linecap="round" stroke-linejoin="round"/>
<path d="M8.45 34.2501C12.0122 34.2501 14.9 31.3623 14.9 27.8001C14.9 24.2379 12.0122 21.3501 8.45 21.3501C4.88776 21.3501 2 24.2379 2 27.8001C2 31.3623 4.88776 34.2501 8.45 34.2501Z" stroke="#CE0F0F" stroke-width="3" stroke-linecap="round" stroke-linejoin="round"/>
</svg>
