<svg width="47" height="47" viewBox="0 0 47 47" fill="none" xmlns="http://www.w3.org/2000/svg">
<path d="M30.6583 30.6581H28.2701C27.2046 30.6409 26.164 30.9805 25.3138 31.6229C24.4636 32.2652 23.8526 33.1735 23.5781 34.2031C23.3035 35.2327 23.3811 36.3246 23.7986 37.305C24.2161 38.2854 24.9494 39.0981 25.8819 39.6137C26.3588 40.0537 26.6858 40.632 26.817 41.2674C26.9482 41.9028 26.8771 42.5634 26.6136 43.1563C26.3501 43.7492 25.9074 44.2446 25.3479 44.573C24.7883 44.9014 24.1399 45.0462 23.4938 44.9871C19.245 44.9871 15.0916 43.7279 11.5581 41.3686C8.02464 39.0092 5.26969 35.6556 3.64129 31.7313C2.01289 27.807 1.5841 23.4881 2.40907 19.3202C3.23404 15.1523 5.27577 11.3224 8.27633 8.31433M13.9411 4.38817C16.8929 2.90034 20.0763 2 23.4938 2C35.363 2 44.9873 10.5544 44.9873 21.1054C44.9873 23.6368 43.8553 26.068 41.8397 27.8591C41.0348 28.5716 40.1275 29.1592 39.1482 29.6025" stroke="#CE0F0F" stroke-width="3" stroke-linecap="round" stroke-linejoin="round"/>
<path d="M2 2L44.9871 44.9871M12.7468 19.9113C12.7468 20.5447 12.9984 21.1521 13.4463 21.6C13.8941 22.0478 14.5016 22.2995 15.1349 22.2995C15.7683 22.2995 16.3758 22.0478 16.8236 21.6C17.2715 21.1521 17.5231 20.5447 17.5231 19.9113C17.5231 19.2779 17.2715 18.6705 16.8236 18.2226C16.3758 17.7747 15.7683 17.5231 15.1349 17.5231C14.5016 17.5231 13.8941 17.7747 13.4463 18.2226C12.9984 18.6705 12.7468 19.2779 12.7468 19.9113ZM22.2995 12.7468C22.2995 13.3802 22.5511 13.9876 22.9989 14.4355C23.4468 14.8833 24.0542 15.1349 24.6876 15.1349C25.321 15.1349 25.9285 14.8833 26.3763 14.4355C26.8242 13.9876 27.0758 13.3802 27.0758 12.7468C27.0758 12.1134 26.8242 11.5059 26.3763 11.0581C25.9285 10.6102 25.321 10.3586 24.6876 10.3586C24.0542 10.3586 23.4468 10.6102 22.9989 11.0581C22.5511 11.5059 22.2995 12.1134 22.2995 12.7468ZM31.8521 19.9113C31.8521 20.5447 32.1038 21.1521 32.5516 21.6C32.9995 22.0478 33.6069 22.2995 34.2403 22.2995C34.8737 22.2995 35.4811 22.0478 35.929 21.6C36.3769 21.1521 36.6285 20.5447 36.6285 19.9113C36.6285 19.2779 36.3769 18.6705 35.929 18.2226C35.4811 17.7747 34.8737 17.5231 34.2403 17.5231C33.6069 17.5231 32.9995 17.7747 32.5516 18.2226C32.1038 18.6705 31.8521 19.2779 31.8521 19.9113Z" stroke="#CE0F0F" stroke-width="3" stroke-linecap="round" stroke-linejoin="round"/>
</svg>
