<svg width="48" height="43" viewBox="0 0 48 43" fill="none" xmlns="http://www.w3.org/2000/svg">
<path d="M0 2.86366L2.91599 0L43.4438 40.1138L40.5505 43L35.9943 38.4903H6.99383C5.78544 38.4903 4.62654 38.0152 3.77208 37.1694C2.91762 36.3237 2.43759 35.1766 2.43759 33.9806V6.92239C2.43759 6.42632 2.52871 5.95281 2.68818 5.52438L0 2.86366ZM43.4438 11.4321V6.92239H15.6963L11.14 2.41269H43.4438C44.6521 2.41269 45.811 2.88782 46.6655 3.73355C47.52 4.57928 48 5.72634 48 6.92239V33.9806C48 35.3335 47.4077 36.5286 46.4509 37.3629L43.0337 33.9806H43.4438V20.4515H29.365L20.2525 11.4321H43.4438ZM6.99383 11.4321H8.65686L6.99383 9.78605V11.4321ZM6.99383 20.4515V33.9806H31.4381L17.7693 20.4515H6.99383Z" fill="#CE0F0F"/>
</svg>
