<svg width="47" height="47" viewBox="0 0 47 47" fill="none" xmlns="http://www.w3.org/2000/svg">
<path d="M17.609 17.609L4.15 21.35V27.8L34.551 34.551M42.85 30.681V10.6L27.1335 14.9645M22.64 33.82C22.4141 34.6388 22.0292 35.4051 21.5072 36.0751C20.9852 36.7451 20.3363 37.3058 19.5976 37.725C18.8589 38.1443 18.0449 38.4139 17.202 38.5186C16.3591 38.6233 15.5038 38.5609 14.685 38.335C13.8662 38.1091 13.0999 37.7242 12.4299 37.2022C11.7599 36.6802 11.1992 36.0313 10.78 35.2926C10.3607 34.5539 10.0911 33.7399 9.9864 32.897C9.88174 32.0541 9.94413 31.1988 10.17 30.38M2 2L45 45" stroke="#CE0F0F" stroke-width="3" stroke-linecap="round" stroke-linejoin="round"/>
</svg>
