<svg width="41" height="43" viewBox="0 0 41 43" fill="none" xmlns="http://www.w3.org/2000/svg">
<path d="M2.47952 1.42682L0 3.90909L7.59476 11.5123V39.0909C7.59476 40.1277 8.00616 41.122 8.73844 41.8551C9.47072 42.5882 10.4639 43 11.4995 43H31.0233C32.0589 43 33.0521 42.5882 33.7844 41.8551C34.5167 41.122 34.9281 40.1277 34.9281 39.0909V38.8759L38.5205 42.4723L41 39.99M31.0233 35.1818H11.4995V15.4214L31.0233 34.9668V35.1818ZM31.0233 7.81818V25.0182L34.9281 28.9273V3.90909C34.9281 2.87234 34.5167 1.87804 33.7844 1.14495C33.0521 0.41185 32.0589 0 31.0233 0H11.4995C10.0938 0 8.76619 0.723182 8.06333 1.95455L13.9205 7.81818H31.0233Z" fill="#CE0F0F"/>
</svg>
