<svg width="50" height="43" viewBox="0 0 50 43" fill="none" xmlns="http://www.w3.org/2000/svg">
<path d="M35.6193 28.8898L27.39 20.8812L23.3149 24.8855C22.7083 25.4816 21.9565 25.7797 21.0598 25.7797C20.163 25.7797 19.4113 25.4816 18.8046 24.8855L10.4566 16.6048C10.1665 16.3197 10.0146 15.9635 10.0009 15.5364C9.98714 15.1093 10.1391 14.7397 10.4566 14.4276C10.7468 14.1425 11.116 14 11.5644 14C12.0128 14 12.3821 14.1425 12.6722 14.4276L21.0598 22.6695L25.1348 18.6652C25.7415 18.0691 26.4932 17.7711 27.39 17.7711C28.2868 17.7711 29.0385 18.0691 29.6451 18.6652L37.8349 26.7127V24.2246C37.8349 23.784 37.9868 23.4149 38.2906 23.1174C38.5945 22.8199 38.9701 22.6706 39.4174 22.6695C39.8648 22.6685 40.2409 22.8178 40.5458 23.1174C40.8507 23.417 41.0021 23.7861 41 24.2246V30.4449C41 30.8855 40.8481 31.2551 40.5442 31.5537C40.2404 31.8523 39.8648 32.001 39.4174 32H33.0872C32.6388 32 32.2632 31.8507 31.9604 31.5521C31.6576 31.2536 31.5057 30.8845 31.5046 30.4449C31.5036 30.0054 31.6555 29.6363 31.9604 29.3377C32.2653 29.0391 32.6409 28.8898 33.0872 28.8898H35.6193Z" fill="#CE0F0F"/>
<rect x="1.5" y="1.5" width="47" height="40" rx="10.5" stroke="#CE0F0F" stroke-width="3"/>
</svg>
