<svg width="38" height="38" viewBox="0 0 38 38" fill="none" xmlns="http://www.w3.org/2000/svg">
<path d="M3.65385 1.82692C3.65385 1.34239 3.46137 0.877708 3.11875 0.535093C2.77614 0.192479 2.31145 0 1.82692 0C1.34239 0 0.877708 0.192479 0.535093 0.535093C0.192479 0.877708 0 1.34239 0 1.82692V31.7885C0 33.4359 0.654428 35.0158 1.81932 36.1807C2.98421 37.3456 4.56414 38 6.21154 38H36.1731C36.6576 38 37.1223 37.8075 37.4649 37.4649C37.8075 37.1223 38 36.6576 38 36.1731C38 35.6885 37.8075 35.2239 37.4649 34.8812C37.1223 34.5386 36.6576 34.3462 36.1731 34.3462H6.21154C5.5332 34.3462 4.88264 34.0767 4.40298 33.597C3.92332 33.1174 3.65385 32.4668 3.65385 31.7885V1.82692ZM25.2057 5.11538C24.7212 5.11538 24.2565 5.30786 23.9139 5.65048C23.5712 5.99309 23.3788 6.45778 23.3788 6.94231C23.3788 7.42684 23.5712 7.89152 23.9139 8.23414C24.2565 8.57675 24.7212 8.76923 25.2057 8.76923H31.0314L22.6538 17.1468L18.0997 12.5926C17.93 12.4229 17.7286 12.2883 17.5069 12.1965C17.2853 12.1046 17.0476 12.0574 16.8077 12.0574C16.5677 12.0574 16.3301 12.1046 16.1084 12.1965C15.8868 12.2883 15.6853 12.4229 15.5157 12.5926L6.38108 21.7272C6.21141 21.8969 6.07682 22.0983 5.985 22.32C5.89317 22.5417 5.84591 22.7793 5.84591 23.0192C5.84591 23.5038 6.03842 23.9686 6.38108 24.3112C6.72374 24.6539 7.18848 24.8464 7.67308 24.8464C8.15767 24.8464 8.62242 24.6539 8.96508 24.3112L16.8077 16.4686L21.3618 21.0228C21.5315 21.1925 21.7329 21.3271 21.9546 21.4189C22.1763 21.5108 22.4139 21.558 22.6538 21.558C22.8938 21.558 23.1314 21.5108 23.3531 21.4189C23.5748 21.3271 23.7762 21.1925 23.9458 21.0228L33.6095 11.3591V17.1731C33.6095 17.6576 33.802 18.1223 34.1446 18.4649C34.4872 18.8075 34.9519 19 35.4365 19C35.921 19 36.3857 18.8075 36.7283 18.4649C37.0709 18.1223 37.2634 17.6576 37.2634 17.1731V6.94231C37.2634 5.93385 36.4449 5.11538 35.4365 5.11538H25.2057Z" fill="#B70003"/>
</svg>
