<svg width="168" height="60" viewBox="0 0 168 60" fill="none" xmlns="http://www.w3.org/2000/svg">
<mask id="mask0_700_3761" style="mask-type:alpha" maskUnits="userSpaceOnUse" x="0" y="0" width="168" height="60">
<path d="M45.0022 0.80632C41.6334 1.31517 37.7659 3.4871 33.8377 7.09871L32.9012 7.96748L32.1958 7.28488C29.7635 4.92678 26.2123 2.5811 23.6097 1.61304C18.6598 -0.211384 15.2059 1.22829 13.8194 5.69627C12.9316 8.56321 12.9438 13.0188 13.8681 17.4743C14.0384 18.2562 14.1235 18.9388 14.0748 18.9761C14.0262 19.0257 13.2965 19.2863 12.4452 19.5718C6.31564 21.6196 1.97389 24.9085 0.940142 28.2843C0.611774 29.3517 0.672583 31.0024 1.06176 31.9828C1.56039 33.2115 2.11983 34.0803 3.10493 35.1104C5.25756 37.3568 8.28584 39.144 12.4695 40.6209C13.3695 40.9436 14.1235 41.2166 14.1356 41.2415C14.1478 41.2539 14.1113 41.4649 14.0505 41.7007C13.7708 42.6563 13.3208 45.6598 13.1992 47.3973C12.956 50.7607 13.3451 53.5408 14.3667 55.6879C15.0113 57.0407 15.8748 58.0088 16.9572 58.5673C17.9301 59.0637 18.6355 59.2126 20.0098 59.2002C23.3299 59.1878 27.2947 57.2269 31.5756 53.4911L33.0229 52.2252L34.2633 53.3422C38.6902 57.2641 42.582 59.2375 45.9143 59.225C47.8115 59.225 49.0156 58.741 50.1709 57.5371C51.3871 56.2712 52.1776 54.3351 52.5546 51.7288C52.9195 49.1597 52.6641 44.9772 51.9465 41.8372C51.8492 41.4152 51.8128 41.0429 51.8492 41.0181C51.8979 40.9932 52.4817 40.7947 53.1506 40.5713C55.7288 39.7025 58.2828 38.4614 60.253 37.1334C60.8246 36.7363 61.8827 35.8302 62.5881 35.1104C63.6461 34.0431 63.9624 33.6335 64.3637 32.802C65.5677 30.3322 65.288 28.1354 63.4637 25.7897C61.6151 23.4316 57.8693 21.1356 53.3938 19.6214C52.4573 19.2988 51.679 19.0381 51.6668 19.0381C51.6668 19.0381 51.7884 18.4052 51.9344 17.6357C52.5668 14.5702 52.7857 10.5614 52.4695 8.24052C51.9587 4.44275 50.3898 1.92331 48.0183 1.09177C47.3372 0.855965 45.7076 0.707031 45.0022 0.80632ZM21.7124 4.09524C23.5732 4.6041 26.2731 6.14306 28.5473 8.00471C29.6054 8.87349 30.8337 10.0029 30.8337 10.1022C30.8337 10.1394 30.4932 10.5366 30.0919 10.9958C29.1676 12.0383 26.6866 15.1783 25.9934 16.196L25.4704 16.9531L24.5461 17.0399C23.2448 17.1516 20.4719 17.5736 18.6233 17.9335C17.772 18.1073 17.0423 18.219 17.018 18.1942C16.9328 18.1073 16.495 15.9478 16.2761 14.5453C15.9964 12.7457 15.9964 8.97278 16.264 7.74408C17.0666 4.1573 18.4531 3.22647 21.7124 4.09524ZM46.9359 3.84702C48.0669 4.16971 49.0277 5.64662 49.4777 7.79373C49.7696 9.19617 49.8182 12.4851 49.575 14.2599C49.3561 15.8361 48.9304 18.0328 48.821 18.1569C48.7602 18.219 48.0548 18.1321 47.1062 17.946C45.2941 17.5736 42.6671 17.1765 41.2807 17.0399L40.3564 16.9655L39.651 15.9478C38.6173 14.4957 37.2795 12.7706 36.039 11.3185L34.9687 10.0649L35.8444 9.24582C37.9119 7.35934 39.7969 6.00654 41.7185 5.01366C43.9076 3.88425 45.6711 3.4871 46.9359 3.84702ZM34.0809 13.5524C35.5403 15.29 36.4646 16.4939 36.4038 16.5683C36.3673 16.5932 34.7741 16.6056 32.8526 16.5932L29.35 16.5559L30.2256 15.4513C31.381 13.9744 32.8161 12.2865 32.9256 12.2741C32.9742 12.2741 33.4972 12.845 34.0809 13.5524ZM36.1849 19.5966C38.5078 19.7083 38.6902 19.7331 38.8727 19.9814C39.7361 21.1604 42.3144 25.5787 43.7617 28.396L44.5522 29.935L43.7738 31.5236C42.8252 33.4722 41.0496 36.637 39.7483 38.7096L38.7875 40.261L38.1186 40.3603C37.243 40.4844 29.2041 40.5216 28.0122 40.3975L27.0636 40.2982L25.7501 38.1759C24.1813 35.6565 22.9772 33.4846 22.0043 31.474L21.2868 30.0219L22.0043 28.5574C22.9772 26.5592 24.5583 23.7295 25.9325 21.5452C27.0028 19.8448 27.1122 19.7207 27.4649 19.7083C27.6838 19.6959 28.6203 19.6463 29.5567 19.609C32.1715 19.4725 33.4728 19.4725 36.1849 19.5966ZM22.1138 22.2278C21.457 23.3448 20.6787 24.7472 20.3746 25.3429C20.0706 25.9387 19.7909 26.4227 19.7544 26.4227C19.5963 26.4227 17.7355 21.2597 17.8571 21.1356C17.9788 20.9991 23.1475 20.0682 23.2691 20.1551C23.2934 20.1799 22.7705 21.1108 22.1138 22.2278ZM43.8468 20.3413C44.3454 20.4157 45.5008 20.6143 46.4251 20.8005L48.0791 21.1232L47.6534 22.3767C47.2643 23.5433 46.1697 26.4351 46.0967 26.522C46.0846 26.5468 45.7805 26.0131 45.4278 25.3429C45.0751 24.6851 44.2603 23.2206 43.6036 22.1161C42.6428 20.4778 42.4725 20.1055 42.6793 20.1551C42.8131 20.1799 43.3482 20.2668 43.8468 20.3413ZM15.1329 22.3519C15.4613 23.4689 16.5558 26.4351 17.2977 28.1975L18.0639 30.0343L17.5166 31.3126C16.8112 32.9757 15.7532 35.7806 15.3275 37.0962C15.1451 37.6795 14.9505 38.2008 14.9018 38.2504C14.7681 38.4117 12.0681 37.394 10.2074 36.4756C8.01828 35.4083 6.57103 34.4278 5.3427 33.1867C4.12652 31.9456 3.65221 31.052 3.65221 29.9598C3.65221 28.9173 4.02923 28.1975 5.22108 26.9688C7.03318 25.1071 9.89119 23.5061 13.6249 22.2526C14.2937 22.0292 14.8775 21.843 14.914 21.843C14.9505 21.8306 15.0478 22.0664 15.1329 22.3519ZM53.333 22.7242C56.5315 23.9405 59.049 25.4174 60.5692 26.9812C61.5422 27.9617 62.2111 29.1531 62.2111 29.8978C62.2111 32.0449 59.3044 34.7629 54.9262 36.7238C53.1141 37.5306 51.0222 38.238 50.9614 38.0518C50.925 37.9774 50.7304 37.394 50.5236 36.7859C50.0007 35.2718 49.1007 32.9633 48.371 31.3375L47.7751 29.9847L48.3588 28.6443C49.0399 27.0681 50.1466 24.1391 50.5479 22.8483L50.8277 21.9423L51.2655 22.0168C51.4966 22.0664 52.433 22.3767 53.333 22.7242ZM46.9237 35.4207C47.8237 37.7788 48.1642 38.8213 48.0669 38.9082C47.8967 39.0943 42.6671 40.0252 42.5333 39.9011C42.509 39.8638 42.6914 39.4915 42.959 39.0571C43.5914 38.0394 45.3062 34.9863 45.7197 34.1299C45.9021 33.77 46.0967 33.5094 46.1575 33.5714C46.2062 33.6335 46.5589 34.465 46.9237 35.4207ZM20.6179 35.1476C21.0557 35.9792 21.8584 37.4065 22.4056 38.3249L23.4151 39.9879L22.6002 39.9011C21.7489 39.8142 18.4044 39.2433 18.0396 39.1316C17.9179 39.0943 17.8207 38.9827 17.8207 38.8958C17.8207 38.5234 19.6206 33.6211 19.7544 33.6211C19.7909 33.6211 20.18 34.3037 20.6179 35.1476ZM49.2223 42.8673C50.1344 47.2732 50.0615 51.6295 49.0156 53.9379C48.5412 55.0177 48.1156 55.5638 47.5075 55.9361C46.9967 56.234 46.8386 56.2712 45.7927 56.2588C44.8806 56.2464 44.4427 56.1843 43.6887 55.9237C41.2564 55.0673 38.2889 53.1188 35.7592 50.7235L35.0417 50.0409L35.8322 49.1225C36.9389 47.8441 37.8754 46.6403 39.2375 44.7538L40.3929 43.1279L42.3023 42.9045C44.0536 42.706 47.2156 42.1971 48.225 41.9365C48.9547 41.7627 49.0034 41.8 49.2223 42.8673ZM19.7057 42.4329C20.8368 42.6315 22.6124 42.8797 23.6461 42.979C24.6799 43.0907 25.5434 43.19 25.5555 43.2148C25.5677 43.2272 26.0663 43.9098 26.6623 44.729C27.7811 46.2679 29.0703 47.8814 30.2743 49.259L30.9675 50.0409L30.6878 50.3512C30.5297 50.5125 29.8608 51.1206 29.1919 51.6791C24.838 55.3404 20.4841 57.0655 18.3679 55.9485C16.7383 55.0922 15.8869 52.3245 16.0329 48.3282C16.0937 46.5906 16.5072 43.5996 16.8477 42.3957C16.9693 41.9613 17.018 41.9241 17.3099 41.9985C17.4923 42.0482 18.5625 42.2343 19.7057 42.4329ZM36.2822 43.823C35.9538 44.307 33.7769 47.0498 33.3147 47.5711L32.9985 47.9434L32.6702 47.5587C31.4661 46.119 29.873 44.1705 29.6419 43.823L29.3622 43.4258H32.962H36.5619L36.2822 43.823Z" fill="black"/>
<path d="M31.4434 24.2507C29.7164 24.7471 28.4881 25.7772 27.7341 27.3534C25.8247 31.2877 28.6097 35.855 32.9028 35.855C37.2567 35.855 40.0053 31.2753 38.0472 27.2665C37.3054 25.7772 35.9919 24.6726 34.423 24.2507C33.5717 24.0273 32.1974 24.0273 31.4434 24.2507Z" fill="black"/>
<path d="M76.6226 28.2225V41.6885H78.3252H80.0278V36.3517V31.015H82.5575H85.0993L88.4316 36.3393L91.7639 41.6761H93.7463C94.8287 41.6885 95.7165 41.6512 95.7165 41.5892C95.7165 41.5395 94.1598 39.0946 92.2504 36.1656L88.7965 30.8288L89.7329 30.6054C92.5909 29.9352 94.7071 27.7881 95.2909 24.9708C95.3881 24.5116 95.4733 23.5932 95.4733 22.9478C95.4733 19.1997 93.6125 16.4444 90.3289 15.315C88.9667 14.8558 87.6289 14.769 81.8278 14.7565H76.6226V28.2225ZM87.6898 17.971C89.4775 18.2689 90.7667 19.1997 91.4842 20.689C91.8734 21.4833 91.8856 21.5826 91.8856 22.9478C91.8856 24.2386 91.8491 24.4496 91.5572 25.0825C91.1559 25.9761 90.3167 26.8945 89.5262 27.3413C88.4438 27.9371 87.6168 28.0363 83.6521 28.0363H80.0278V22.9478V17.8593H83.5304C85.452 17.8593 87.3249 17.9089 87.6898 17.971Z" fill="black"/>
<path d="M159.81 19.5344V22.2028H158.229H156.648V23.568V24.9332H158.229H159.798L159.835 32.0324L159.871 39.1439L160.224 39.9258C160.954 41.5268 162.06 42.1349 164.25 42.1101C165.745 42.0977 166.597 41.8495 167.326 41.2289L167.728 40.8814L167.29 39.8389C167.059 39.268 166.828 38.7591 166.791 38.6971C166.755 38.635 166.512 38.7343 166.232 38.9205C165.527 39.4045 164.42 39.4666 163.836 39.057C163.605 38.9081 163.301 38.5481 163.167 38.2751C162.924 37.7911 162.912 37.5925 162.875 31.3497L162.839 24.9332H164.797H166.743V23.568V22.2028H164.797H162.851V19.5344V16.8661H161.331H159.81V19.5344Z" fill="black"/>
<path d="M105.75 21.7811C101.992 22.4017 99.2435 24.9335 98.0759 28.843C97.7719 29.8607 97.7354 30.1338 97.7476 31.9458C97.7476 34.3163 97.9422 35.2595 98.8421 37.0964C99.3164 38.0644 99.6083 38.4616 100.46 39.3303C101.031 39.9137 101.81 40.5714 102.199 40.8072C105.142 42.5696 109.338 42.6317 112.573 40.9686C113.278 40.6087 114.835 39.442 114.908 39.2062C114.944 39.1193 113.947 37.6052 113.57 37.1584C113.509 37.0964 113.29 37.2329 113.011 37.4935C111.43 39.0697 108.45 39.9012 106.2 39.4048C104.278 38.9952 102.661 37.7541 101.773 36.0414C101.323 35.1602 100.946 33.9191 100.946 33.3234V33.0007H108.559H116.185L116.112 31.35C115.978 28.1976 114.981 25.8023 113.071 23.9779C112.184 23.1339 110.736 22.3396 109.52 22.017C108.79 21.8184 106.431 21.6694 105.75 21.7811ZM108.401 24.4992C110.882 25.0328 112.755 27.2172 113.157 30.0469L113.242 30.6426H107.1H100.946V30.3199C100.946 29.7242 101.323 28.4831 101.773 27.6267C103.062 25.0949 105.604 23.891 108.401 24.4992Z" fill="black"/>
<path d="M125.429 21.8927C123.349 22.2774 121.719 23.109 120.26 24.5362L119.81 24.9706L120.54 26.0752L121.269 27.1798L121.853 26.6337C123.227 25.3181 124.784 24.5983 126.523 24.4742C128.384 24.3501 129.989 24.8837 130.938 25.9635C131.716 26.8447 131.85 27.4404 131.814 29.7489L131.777 31.6229L131.035 31.0396C128.627 29.1283 124.906 28.7063 122.267 30.0591C120.138 31.1637 118.971 33.1123 118.959 35.6069C118.947 37.4934 119.494 38.9206 120.71 40.1617C123.288 42.7929 128.056 42.8425 131.157 40.261L131.838 39.7025V40.6954V41.6883H133.37H134.891L134.854 34.2665C134.818 26.9564 134.805 26.8447 134.538 26.0256C133.796 23.7668 132.081 22.3767 129.406 21.8803C128.275 21.6693 126.584 21.6817 125.429 21.8927ZM129.016 31.958C130.014 32.2931 131.06 32.9509 131.534 33.5218C131.826 33.8817 131.838 33.9438 131.838 35.7434V37.5926L131.266 38.1635C130.573 38.8337 129.26 39.5039 128.226 39.7025C127.812 39.7894 126.961 39.839 126.341 39.8018C124.906 39.7397 123.957 39.3302 123.13 38.4366C122.34 37.5802 122.072 36.8728 122.06 35.731C122.06 32.5041 125.38 30.7045 129.016 31.958Z" fill="black"/>
<path d="M146.893 21.8315C145.58 22.0549 144.047 22.6879 142.965 23.4325C142.272 23.9166 141.055 25.2445 140.532 26.1133C139.487 27.8136 139.012 29.638 139.012 31.9465C139.012 35.1485 139.973 37.6059 142.028 39.5917C145.032 42.5207 150.104 43.0544 153.448 40.7831C154.287 40.2122 155.601 38.9215 155.528 38.7353C155.504 38.6733 155.066 38.2265 154.543 37.73L153.606 36.8116L152.779 37.6183C151.502 38.8843 150.432 39.3311 148.681 39.3311C145.008 39.3311 142.43 36.5758 142.211 32.4429C142.077 30.0476 142.734 28.0122 144.108 26.5105C145.434 25.0708 146.966 24.4875 149.119 24.5868C150.687 24.6612 151.77 25.1701 152.864 26.3119L153.606 27.0814L154.555 26.163C155.066 25.6541 155.504 25.2073 155.528 25.1577C155.613 24.9839 154.19 23.5815 153.424 23.0726C151.721 21.9432 149.131 21.4468 146.893 21.8315Z" fill="black"/>
</mask>
<g mask="url(#mask0_700_3761)">
<rect x="73.8813" y="12.8765" width="107.175" height="34.906" fill="#F6F6F6"/>
<rect x="0.727539" y="-0.806152" width="72.9705" height="62.7378" fill="#00D8FF"/>
</g>
</svg>
