<svg width="160" height="160" viewBox="0 0 160 160" fill="none" xmlns="http://www.w3.org/2000/svg">
<path d="M159.167 0.442383L134.246 16.8535H0.97168L31.1357 0.25L159.167 0.442383Z" fill="url(#paint0_linear_700_3692)" stroke="url(#paint1_linear_700_3692)" stroke-width="0.5"/>
<path d="M134.57 159.201L159.749 136.523L159.749 0.657715L134.57 17.2378L134.57 159.201Z" fill="url(#paint2_linear_700_3692)" fill-opacity="0.3"/>
<path d="M134.57 159.201L159.749 136.523L159.749 0.657715L134.57 17.2378L134.57 159.201Z" fill="url(#paint3_linear_700_3692)"/>
<path d="M134.57 159.201L159.749 136.523L159.749 0.657715L134.57 17.2378L134.57 159.201Z" stroke="url(#paint4_linear_700_3692)" stroke-width="0.5"/>
<path d="M134.071 17.5132V159.75L0.262695 159.689L0.25 17.5132H134.071Z" fill="url(#paint5_linear_700_3692)" stroke="url(#paint6_linear_700_3692)" stroke-width="0.5"/>
<defs>
<linearGradient id="paint0_linear_700_3692" x1="143" y1="18.8199" x2="141.528" y2="-5.49259" gradientUnits="userSpaceOnUse">
<stop stop-color="#B70003"/>
<stop offset="1" stop-color="#0E0089"/>
</linearGradient>
<linearGradient id="paint1_linear_700_3692" x1="0" y1="8.55176" x2="160" y2="8.55176" gradientUnits="userSpaceOnUse">
<stop stop-color="#F6F6F6" stop-opacity="0.1"/>
<stop offset="0.514423" stop-color="#F6F6F6"/>
<stop offset="1" stop-color="#F6F6F6" stop-opacity="0.1"/>
</linearGradient>
<linearGradient id="paint2_linear_700_3692" x1="159.285" y1="0.193848" x2="101.879" y2="142.524" gradientUnits="userSpaceOnUse">
<stop stop-color="#360DB2" stop-opacity="0"/>
<stop offset="0.673077" stop-color="#360DB2"/>
</linearGradient>
<linearGradient id="paint3_linear_700_3692" x1="143.503" y1="-33.5664" x2="193.52" y2="-13.5344" gradientUnits="userSpaceOnUse">
<stop stop-color="#B70003"/>
<stop offset="1" stop-color="#0E0089"/>
</linearGradient>
<linearGradient id="paint4_linear_700_3692" x1="147.16" y1="0.193848" x2="147.16" y2="159.762" gradientUnits="userSpaceOnUse">
<stop stop-color="#F6F6F6" stop-opacity="0.1"/>
<stop offset="0.514423" stop-color="#F6F6F6"/>
<stop offset="1" stop-color="#F6F6F6" stop-opacity="0.1"/>
</linearGradient>
<linearGradient id="paint5_linear_700_3692" x1="13.5" y1="27.7452" x2="31.1116" y2="138.203" gradientUnits="userSpaceOnUse">
<stop stop-color="#B70003"/>
<stop offset="1" stop-color="#0E0089"/>
</linearGradient>
<linearGradient id="paint6_linear_700_3692" x1="0" y1="88.6318" x2="134.321" y2="88.6318" gradientUnits="userSpaceOnUse">
<stop stop-color="#F6F6F6" stop-opacity="0.1"/>
<stop offset="0.514423" stop-color="#F6F6F6"/>
<stop offset="1" stop-color="#F6F6F6" stop-opacity="0.1"/>
</linearGradient>
</defs>
</svg>
