<svg width="160" height="120" viewBox="0 0 160 120" fill="none" xmlns="http://www.w3.org/2000/svg">
<path d="M158.934 0.393555L134.262 12.5918H1.25879L31.1221 0.25L158.934 0.393555Z" fill="url(#paint0_linear_700_3674)" stroke="url(#paint1_linear_700_3674)" stroke-width="0.5"/>
<path d="M134.57 119.45L159.749 102.423L159.749 0.519531L134.57 12.9678L134.57 119.45Z" fill="url(#paint2_linear_700_3674)" fill-opacity="0.3"/>
<path d="M134.57 119.45L159.749 102.423L159.749 0.519531L134.57 12.9678L134.57 119.45Z" fill="url(#paint3_linear_700_3674)"/>
<path d="M134.57 119.45L159.749 102.423L159.749 0.519531L134.57 12.9678L134.57 119.45Z" stroke="url(#paint4_linear_700_3674)" stroke-width="0.5"/>
<path d="M134.071 13.083V119.749L0.262695 119.704L0.25 13.083H134.071Z" fill="url(#paint5_linear_700_3674)" stroke="url(#paint6_linear_700_3674)" stroke-width="0.5"/>
<defs>
<linearGradient id="paint0_linear_700_3674" x1="143" y1="14.13" x2="142.169" y2="-4.15298" gradientUnits="userSpaceOnUse">
<stop stop-color="#B70003"/>
<stop offset="1" stop-color="#0E0089"/>
</linearGradient>
<linearGradient id="paint1_linear_700_3674" x1="0" y1="6.42067" x2="160" y2="6.42067" gradientUnits="userSpaceOnUse">
<stop stop-color="#F6F6F6" stop-opacity="0.1"/>
<stop offset="0.514423" stop-color="#F6F6F6"/>
<stop offset="1" stop-color="#F6F6F6" stop-opacity="0.1"/>
</linearGradient>
<linearGradient id="paint2_linear_700_3674" x1="159.285" y1="0.117188" x2="124.821" y2="113.927" gradientUnits="userSpaceOnUse">
<stop stop-color="#360DB2" stop-opacity="0"/>
<stop offset="0.673077" stop-color="#360DB2"/>
</linearGradient>
<linearGradient id="paint3_linear_700_3674" x1="143.503" y1="-25.23" x2="188.686" y2="-1.12784" gradientUnits="userSpaceOnUse">
<stop stop-color="#B70003"/>
<stop offset="1" stop-color="#0E0089"/>
</linearGradient>
<linearGradient id="paint4_linear_700_3674" x1="147.16" y1="0.117187" x2="147.16" y2="119.921" gradientUnits="userSpaceOnUse">
<stop stop-color="#F6F6F6" stop-opacity="0.1"/>
<stop offset="0.514423" stop-color="#F6F6F6"/>
<stop offset="1" stop-color="#F6F6F6" stop-opacity="0.1"/>
</linearGradient>
<linearGradient id="paint5_linear_700_3674" x1="13.5" y1="20.7029" x2="23.5363" y2="104.542" gradientUnits="userSpaceOnUse">
<stop stop-color="#B70003"/>
<stop offset="1" stop-color="#0E0089"/>
</linearGradient>
<linearGradient id="paint6_linear_700_3674" x1="0" y1="66.4166" x2="134.321" y2="66.4166" gradientUnits="userSpaceOnUse">
<stop stop-color="#F6F6F6" stop-opacity="0.1"/>
<stop offset="0.514423" stop-color="#F6F6F6"/>
<stop offset="1" stop-color="#F6F6F6" stop-opacity="0.1"/>
</linearGradient>
</defs>
</svg>
