<svg width="160" height="180" viewBox="0 0 160 180" fill="none" xmlns="http://www.w3.org/2000/svg">
<path d="M159.244 0.466797L134.237 19.0107H0.876953L31.1436 0.25L159.244 0.466797Z" fill="url(#paint0_linear_700_3700)" stroke="url(#paint1_linear_700_3700)" stroke-width="0.5"/>
<path d="M134.57 179.302L159.749 153.763L159.749 0.715332L134.57 19.3853L134.57 179.302Z" fill="url(#paint2_linear_700_3700)" fill-opacity="0.3"/>
<path d="M134.57 179.302L159.749 153.763L159.749 0.715332L134.57 19.3853L134.57 179.302Z" fill="url(#paint3_linear_700_3700)"/>
<path d="M134.57 179.302L159.749 153.763L159.749 0.715332L134.57 19.3853L134.57 179.302Z" stroke="url(#paint4_linear_700_3700)" stroke-width="0.5"/>
<path d="M134.071 19.5107V179.749L0.262695 179.681L0.25 19.5107H134.071Z" fill="url(#paint5_linear_700_3700)" stroke="url(#paint6_linear_700_3700)" stroke-width="0.5"/>
<defs>
<linearGradient id="paint0_linear_700_3700" x1="143" y1="21.1935" x2="141.135" y2="-6.15853" gradientUnits="userSpaceOnUse">
<stop stop-color="#B70003"/>
<stop offset="1" stop-color="#0E0089"/>
</linearGradient>
<linearGradient id="paint1_linear_700_3700" x1="0" y1="9.63033" x2="160" y2="9.63033" gradientUnits="userSpaceOnUse">
<stop stop-color="#F6F6F6" stop-opacity="0.1"/>
<stop offset="0.514423" stop-color="#F6F6F6"/>
<stop offset="1" stop-color="#F6F6F6" stop-opacity="0.1"/>
</linearGradient>
<linearGradient id="paint2_linear_700_3700" x1="159.285" y1="0.218262" x2="89.1182" y2="154.704" gradientUnits="userSpaceOnUse">
<stop stop-color="#360DB2" stop-opacity="0"/>
<stop offset="0.673077" stop-color="#360DB2"/>
</linearGradient>
<linearGradient id="paint3_linear_700_3700" x1="143.503" y1="-37.7998" x2="195.026" y2="-19.4758" gradientUnits="userSpaceOnUse">
<stop stop-color="#B70003"/>
<stop offset="1" stop-color="#0E0089"/>
</linearGradient>
<linearGradient id="paint4_linear_700_3700" x1="147.16" y1="0.218262" x2="147.16" y2="179.911" gradientUnits="userSpaceOnUse">
<stop stop-color="#F6F6F6" stop-opacity="0.1"/>
<stop offset="0.514423" stop-color="#F6F6F6"/>
<stop offset="1" stop-color="#F6F6F6" stop-opacity="0.1"/>
</linearGradient>
<linearGradient id="paint5_linear_700_3700" x1="13.5" y1="31.0647" x2="35.6867" y2="154.632" gradientUnits="userSpaceOnUse">
<stop stop-color="#B70003"/>
<stop offset="1" stop-color="#0E0089"/>
</linearGradient>
<linearGradient id="paint6_linear_700_3700" x1="0" y1="99.6305" x2="134.321" y2="99.6305" gradientUnits="userSpaceOnUse">
<stop stop-color="#F6F6F6" stop-opacity="0.1"/>
<stop offset="0.514423" stop-color="#F6F6F6"/>
<stop offset="1" stop-color="#F6F6F6" stop-opacity="0.1"/>
</linearGradient>
</defs>
</svg>
