<svg width="38" height="35" viewBox="0 0 38 35" fill="none" xmlns="http://www.w3.org/2000/svg">
<path d="M34.2 0H3.8C2.79218 0 1.82563 0.400356 1.11299 1.11299C0.400356 1.82563 0 2.79218 0 3.8V11.4C0 12.4078 0.400356 13.3744 1.11299 14.087C1.82563 14.7996 2.79218 15.2 3.8 15.2H34.2C35.2078 15.2 36.1744 14.7996 36.887 14.087C37.5996 13.3744 38 12.4078 38 11.4V3.8C38 2.79218 37.5996 1.82563 36.887 1.11299C36.1744 0.400356 35.2078 0 34.2 0ZM3.8 11.4V3.8H34.2V11.4H3.8ZM34.2 19H3.8C2.79218 19 1.82563 19.4004 1.11299 20.113C0.400356 20.8256 0 21.7922 0 22.8V30.4C0 31.4078 0.400356 32.3744 1.11299 33.087C1.82563 33.7996 2.79218 34.2 3.8 34.2H34.2C35.2078 34.2 36.1744 33.7996 36.887 33.087C37.5996 32.3744 38 31.4078 38 30.4V22.8C38 21.7922 37.5996 20.8256 36.887 20.113C36.1744 19.4004 35.2078 19 34.2 19ZM3.8 30.4V22.8H34.2V30.4H3.8Z" fill="#B70003"/>
</svg>
