<svg width="42" height="42" viewBox="0 0 42 42" fill="none" xmlns="http://www.w3.org/2000/svg">
<path d="M34.5714 34.5714C36.0112 34.5714 37.392 33.9995 38.41 32.9814C39.4281 31.9634 40 30.5826 40 29.1429V23.7143C40 22.2745 39.4281 20.8938 38.41 19.8757C37.392 18.8577 36.0112 18.2857 34.5714 18.2857C33.8516 18.2857 33.1612 18.5717 32.6521 19.0807C32.1431 19.5897 31.8571 20.2801 31.8571 21V31.8571C31.8571 32.577 32.1431 33.2674 32.6521 33.7764C33.1612 34.2855 33.8516 34.5714 34.5714 34.5714ZM34.5714 34.5714C34.5714 36.0112 33.9995 37.392 32.9814 38.41C31.9634 39.4281 30.5826 40 29.1429 40H22.3571M40 27.7857V21C40 18.5049 39.5085 16.0342 38.5537 13.729C37.5989 11.4238 36.1993 9.32928 34.435 7.56497C32.6707 5.80066 30.5762 4.40113 28.271 3.44629C25.9658 2.49145 23.4951 2 21 2C18.5049 2 16.0342 2.49145 13.729 3.44629C11.4238 4.40113 9.32928 5.80066 7.56497 7.56497C5.80066 9.32928 4.40113 11.4238 3.44629 13.729C2.49145 16.0342 2 18.5049 2 21V27.7857M7.42857 34.5714C8.14844 34.5714 8.83883 34.2855 9.34786 33.7764C9.85689 33.2674 10.1429 32.577 10.1429 31.8571V21C10.1429 20.2801 9.85689 19.5897 9.34786 19.0807C8.83883 18.5717 8.14844 18.2857 7.42857 18.2857C5.98882 18.2857 4.60805 18.8577 3.58999 19.8757C2.57194 20.8938 2 22.2745 2 23.7143V29.1429C2 30.5826 2.57194 31.9634 3.58999 32.9814C4.60805 33.9995 5.98882 34.5714 7.42857 34.5714Z" stroke="#B70003" stroke-width="2.37"/>
</svg>
