<svg width="110" height="96" viewBox="0 0 110 96" fill="none" xmlns="http://www.w3.org/2000/svg">
<path d="M67.0263 57.6804C69.439 58.882 71.621 60.3841 73.5725 62.1865C75.5239 63.989 77.1738 66.0742 78.522 68.4421H70.1663C68.2504 66.2862 65.9796 64.6251 63.354 63.4588C60.7285 62.2925 57.9432 61.6917 54.9983 61.6564C52.1599 61.6564 49.5166 62.1865 47.0684 63.2468C44.6202 64.3071 42.4559 65.7561 40.5754 67.5939C38.695 69.4317 37.2225 71.6052 36.1581 74.1145C35.0937 76.6238 34.5615 79.2568 34.5615 82.0135H27.7492C27.7492 79.4335 28.104 76.9419 28.8136 74.5386C29.5232 72.1354 30.5344 69.8558 31.8472 67.6999C33.16 65.544 34.7743 63.6356 36.6903 61.9745C38.6063 60.3134 40.6996 58.882 42.9704 57.6804C40.3093 55.7719 38.2515 53.3863 36.7967 50.5236C35.342 47.6609 34.5969 44.5861 34.5615 41.2992C34.5615 39.4261 34.2067 37.6767 33.497 36.0509C32.7874 34.4252 31.8117 32.9761 30.5699 31.7038C29.3281 30.4315 27.8911 29.4596 26.259 28.7881C24.6269 28.1166 22.8528 27.7632 20.9369 27.7278C19.0564 27.7278 17.3001 28.0812 15.668 28.7881C14.0359 29.4949 12.5812 30.4668 11.3039 31.7038C10.0266 32.9408 9.05085 34.3722 8.37671 35.9979C7.70258 37.6236 7.34777 39.3908 7.31229 41.2992H0.5C0.5 39.4614 0.748365 37.659 1.24509 35.8919C1.74182 34.1248 2.4337 32.4814 3.32071 30.9616C4.20773 29.4419 5.32537 28.0282 6.67364 26.7206C8.02191 25.4129 9.49435 24.335 11.091 23.4867C9.88464 22.2498 8.96214 20.8184 8.32349 19.1927C7.68484 17.5669 7.34777 15.8882 7.31229 14.1564C7.31229 12.2832 7.6671 10.5338 8.37671 8.90806C9.08633 7.28232 10.062 5.83329 11.3039 4.56097C12.5457 3.28864 13.9827 2.31673 15.6148 1.64523C17.2469 0.973726 19.0209 0.620303 20.9369 0.584961C22.8174 0.584961 24.5736 0.938384 26.2058 1.64523C27.8379 2.35207 29.2926 3.32399 30.5699 4.56097C31.8472 5.79794 32.8229 7.22931 33.497 8.85505C34.1712 10.4808 34.526 12.2479 34.5615 14.1564C34.5615 15.8882 34.2421 17.5669 33.6035 19.1927C32.9648 20.8184 32.0246 22.2498 30.7828 23.4867C32.273 24.2996 33.6035 25.2715 34.7743 26.4025C35.9452 27.5334 37.0096 28.7704 37.9676 30.1134C38.9256 28.6997 40.0255 27.4274 41.2673 26.2965C42.5091 25.1655 43.8574 24.2113 45.3121 23.4337C46.7668 22.6562 48.3102 22.0377 49.9423 21.5783C51.5745 21.1188 53.2598 20.9068 54.9983 20.9421C56.7014 20.9421 58.369 21.1542 60.0011 21.5783C61.6332 22.0024 63.1766 22.6032 64.6313 23.3807C66.0861 24.1582 67.4521 25.1302 68.7294 26.2965C70.0067 27.4628 71.1066 28.7351 72.0291 30.1134C72.9516 28.7704 73.9982 27.5334 75.1691 26.4025C76.34 25.2715 77.6882 24.2996 79.2139 23.4867C78.0076 22.2498 77.0851 20.8184 76.4464 19.1927C75.8078 17.5669 75.4707 15.8882 75.4352 14.1564C75.4352 12.2832 75.79 10.5338 76.4996 8.90806C77.2092 7.28232 78.185 5.83329 79.4268 4.56097C80.6686 3.28864 82.1056 2.31673 83.7377 1.64523C85.3698 0.973726 87.1438 0.620303 89.0598 0.584961C90.9403 0.584961 92.6966 0.938384 94.3287 1.64523C95.9608 2.35207 97.4155 3.32399 98.6928 4.56097C99.9701 5.79794 100.946 7.22931 101.62 8.85505C102.294 10.4808 102.649 12.2479 102.684 14.1564C102.684 15.8882 102.365 17.5669 101.726 19.1927C101.088 20.8184 100.148 22.2498 98.9057 23.4867C100.538 24.3703 102.01 25.4482 103.323 26.7206C104.636 27.9929 105.736 29.3889 106.623 30.9086C107.51 32.4283 108.219 34.0894 108.752 35.8919C109.284 37.6943 109.532 39.4968 109.497 41.2992H102.684C102.684 39.4261 102.33 37.6767 101.62 36.0509C100.91 34.4252 99.9346 32.9761 98.6928 31.7038C97.451 30.4315 96.014 29.4596 94.3819 28.7881C92.7498 28.1166 90.9758 27.7632 89.0598 27.7278C87.1793 27.7278 85.423 28.0812 83.7909 28.7881C82.1588 29.4949 80.7041 30.4668 79.4268 31.7038C78.1495 32.9408 77.1738 34.3722 76.4996 35.9979C75.8255 37.6236 75.4707 39.3908 75.4352 41.2992C75.4352 44.5507 74.7079 47.6078 73.2532 50.4706C71.7984 53.3333 69.7228 55.7366 67.0263 57.6804ZM89.0598 7.37068C88.1018 7.37068 87.2148 7.54739 86.3987 7.90081C85.5827 8.25423 84.8731 8.73135 84.2699 9.33217C83.6667 9.93299 83.17 10.6575 82.7797 11.5057C82.3894 12.3539 82.212 13.2375 82.2475 14.1564C82.2475 15.1106 82.4249 15.9942 82.7797 16.8071C83.1345 17.6199 83.6135 18.3268 84.2167 18.9276C84.8199 19.5284 85.5472 20.0232 86.3987 20.412C87.2503 20.8007 88.1373 20.9774 89.0598 20.9421C90.0178 20.9421 90.9048 20.7654 91.7208 20.412C92.5369 20.0585 93.2465 19.5814 93.8497 18.9806C94.4529 18.3798 94.9496 17.6553 95.3399 16.8071C95.7302 15.9588 95.9076 15.0753 95.8721 14.1564C95.8721 13.2021 95.6947 12.3186 95.3399 11.5057C94.9851 10.6928 94.5061 9.986 93.9029 9.38518C93.2997 8.78437 92.5724 8.28957 91.7208 7.90081C90.8693 7.51204 89.9823 7.33533 89.0598 7.37068ZM20.9369 20.9421C21.8949 20.9421 22.7819 20.7654 23.5979 20.412C24.414 20.0585 25.1236 19.5814 25.7268 18.9806C26.3299 18.3798 26.8267 17.6553 27.217 16.8071C27.6072 15.9588 27.7846 15.0753 27.7492 14.1564C27.7492 13.2021 27.5718 12.3186 27.217 11.5057C26.8622 10.6928 26.3832 9.986 25.78 9.38518C25.1768 8.78437 24.4495 8.28957 23.5979 7.90081C22.7464 7.51204 21.8594 7.33533 20.9369 7.37068C19.9789 7.37068 19.0919 7.54739 18.2758 7.90081C17.4598 8.25423 16.7502 8.73135 16.147 9.33217C15.5438 9.93299 15.0471 10.6575 14.6568 11.5057C14.2665 12.3539 14.0891 13.2375 14.1246 14.1564C14.1246 15.1106 14.302 15.9942 14.6568 16.8071C15.0116 17.6199 15.4906 18.3268 16.0938 18.9276C16.6969 19.5284 17.4243 20.0232 18.2758 20.412C19.1274 20.8007 20.0144 20.9774 20.9369 20.9421ZM54.9983 54.8707C56.8788 54.8707 58.6351 54.5173 60.2672 53.8104C61.8993 53.1036 63.354 52.1316 64.6313 50.8947C65.9086 49.6577 66.8844 48.2263 67.5585 46.6006C68.2326 44.9748 68.5874 43.2077 68.6229 41.2992C68.6229 39.4261 68.2681 37.6767 67.5585 36.0509C66.8489 34.4252 65.8732 32.9761 64.6313 31.7038C63.3895 30.4315 61.9526 29.4596 60.3204 28.7881C58.6883 28.1166 56.9143 27.7632 54.9983 27.7278C53.1179 27.7278 51.3616 28.0812 49.7295 28.7881C48.0973 29.4949 46.6426 30.4668 45.3653 31.7038C44.088 32.9408 43.1123 34.3722 42.4382 35.9979C41.764 37.6236 41.4092 39.3908 41.3738 41.2992C41.3738 43.1724 41.7286 44.9218 42.4382 46.5476C43.1478 48.1733 44.1235 49.6223 45.3653 50.8947C46.6072 52.167 48.0441 53.1389 49.6762 53.8104C51.3083 54.4819 53.0824 54.8353 54.9983 54.8707ZM95.8721 75.2278H109.497V82.0135H95.8721V95.585H89.0598V82.0135H75.4352V75.2278H89.0598V61.6564H95.8721V75.2278Z" fill="#CE0F0F"/>
</svg>
