<svg width="72" height="100" viewBox="0 0 72 100" fill="none" xmlns="http://www.w3.org/2000/svg">
<path d="M2 94.735V5.43496C2 4.67909 2.26866 3.95419 2.74688 3.41971C3.2251 2.88523 3.8737 2.58496 4.55 2.58496H54.071C54.7471 2.58563 55.3952 2.88633 55.873 3.42096L69.252 18.374C69.4899 18.6395 69.6784 18.955 69.8068 19.3022C69.9352 19.6495 70.0008 20.0217 70 20.3975V94.735C70 95.1092 69.934 95.4798 69.8059 95.8256C69.6777 96.1714 69.4899 96.4856 69.2531 96.7502C69.0163 97.0149 68.7352 97.2248 68.4258 97.368C68.1165 97.5112 67.7849 97.585 67.45 97.585H4.55C4.21513 97.585 3.88354 97.5112 3.57416 97.368C3.26478 97.2248 2.98367 97.0149 2.74688 96.7502C2.51009 96.4856 2.32226 96.1714 2.19411 95.8256C2.06596 95.4798 2 95.1092 2 94.735Z" stroke="#CE0F0F" stroke-width="4" stroke-linecap="round" stroke-linejoin="round"/>
<path d="M53 2.58496V18.735C53 19.4908 53.2687 20.2157 53.7469 20.7502C54.2251 21.2847 54.8737 21.585 55.55 21.585H70" stroke="#CE0F0F" stroke-width="4" stroke-linecap="round" stroke-linejoin="round"/>
<path d="M36.5 80.585C39.0608 80.585 41.5965 80.0806 43.9623 79.1006C46.3282 78.1206 48.4778 76.6843 50.2886 74.8735C52.0993 73.0628 53.5357 70.9131 54.5157 68.5473C55.4956 66.1814 56 63.6457 56 61.085C56 58.5242 55.4956 55.9885 54.5157 53.6226C53.5357 51.2568 52.0993 49.1071 50.2886 47.2964C48.4778 45.4856 46.3282 44.0493 43.9623 43.0693C41.5965 42.0893 39.0608 41.585 36.5 41.585M36.5 80.585C33.9392 80.585 31.4035 80.0806 29.0377 79.1006C26.6718 78.1206 24.5222 76.6843 22.7114 74.8735C20.9007 73.0628 19.4643 70.9131 18.4843 68.5473C17.5044 66.1814 17 63.6457 17 61.085C17 58.5242 17.5044 55.9885 18.4843 53.6226C19.4643 51.2568 20.9007 49.1071 22.7114 47.2964C24.5222 45.4856 26.6718 44.0493 29.0377 43.0693C31.4035 42.0893 33.9392 41.585 36.5 41.585M36.5 80.585C42.4822 80.585 45.0388 69.3985 45.0388 61.085C45.0388 52.7715 42.4822 41.585 36.5 41.585M36.5 80.585C30.5178 80.585 27.9612 69.3985 27.9612 61.085C27.9612 52.7715 30.5178 41.585 36.5 41.585M18.0833 54.585H54.9167M18.0833 67.585H54.9167" stroke="#CE0F0F" stroke-width="3" stroke-linecap="round" stroke-linejoin="round"/>
</svg>
