<svg width="107" height="102" viewBox="0 0 107 102" fill="none" xmlns="http://www.w3.org/2000/svg">
<path d="M75.5604 70.0851L30.738 66.6318C16.7105 65.5536 13.5647 62.7226 12.0123 49.7978L8.73804 22.585M85.8408 22.585H72.9904M3.59785 22.585H21.5885M60.1399 34.46C57.6109 36.8635 50.8876 46.335 47.2894 46.335M47.2894 46.335C43.6913 46.335 36.9679 36.8635 34.439 34.46M47.2894 46.335V8.33496" stroke="#CE0F0F" stroke-width="6" stroke-linecap="round" stroke-linejoin="round"/>
<path d="M85.8412 98.585C80.1635 98.585 75.5608 94.3317 75.5608 89.085C75.5608 83.8383 80.1635 79.585 85.8412 79.585C91.5189 79.585 96.1216 83.8383 96.1216 89.085C96.1216 94.3317 91.5189 98.585 85.8412 98.585Z" stroke="#CE0F0F" stroke-width="6" stroke-linecap="round" stroke-linejoin="round"/>
<path d="M29.2987 98.585C23.621 98.585 19.0184 94.3317 19.0184 89.085C19.0184 83.8383 23.621 79.585 29.2987 79.585C34.9764 79.585 39.5791 83.8383 39.5791 89.085C39.5791 94.3317 34.9764 98.585 29.2987 98.585Z" stroke="#CE0F0F" stroke-width="6" stroke-linecap="round" stroke-linejoin="round"/>
<path d="M73.3214 89.0851H41.9374M106.402 3.58496H101.436C96.579 3.58496 92.3486 6.55372 91.1715 10.7812L75.8692 65.6961C75.4895 67.0694 75.4542 68.5048 75.766 69.8927C76.0778 71.2806 76.7284 72.5843 77.6682 73.7046L82.5977 79.5851" stroke="#CE0F0F" stroke-width="6" stroke-linejoin="round"/>
</svg>
