<svg width="72" height="100" viewBox="0 0 72 100" fill="none" xmlns="http://www.w3.org/2000/svg">
<path d="M59.8 2.58496H12.2C6.5667 2.58496 2 7.14206 2 12.7635V87.4064C2 93.0279 6.5667 97.585 12.2 97.585H59.8C65.4333 97.585 70 93.0279 70 87.4064V12.7635C70 7.14206 65.4333 2.58496 59.8 2.58496Z" stroke="#CE0F0F" stroke-width="4" stroke-linejoin="round"/>
<path d="M25.7998 12.7642H46.1998" stroke="#CE0F0F" stroke-width="4" stroke-linecap="round" stroke-linejoin="round"/>
<path d="M46.2002 77.5332C49.5383 77.5332 52.7557 78.3946 55.3291 79.9189L55.835 80.2324C58.7908 82.1501 60.6001 84.8196 61.1836 87.9658L61.1865 87.9824L61.1895 88C61.2064 88.0831 61.2097 88.1683 61.1982 88.252L61.1816 88.334C61.1558 88.4361 61.1074 88.5311 61.042 88.6143C60.99 88.6719 60.928 88.7199 60.8564 88.752C60.7813 88.7855 60.6989 88.8021 60.6162 88.8008H31.7842C31.7017 88.802 31.6199 88.7855 31.5449 88.752C31.4742 88.7203 31.412 88.6738 31.3604 88.6172C31.3116 88.5556 31.2716 88.4879 31.2441 88.415L31.2197 88.334C31.1921 88.2246 31.1884 88.1105 31.2109 88L31.2148 87.9824L31.2178 87.9658C31.7648 85.0163 33.389 82.4855 36.0254 80.6006L36.5664 80.2324C39.2173 78.5133 42.6398 77.5333 46.2002 77.5332ZM46.2002 55.4795H46.2295C47.0118 55.4683 47.7883 55.5998 48.5215 55.8662L48.833 55.9883C49.6517 56.335 50.3895 56.847 50.999 57.4922V57.4932C52.1302 58.7114 52.7468 60.346 52.6973 62.1758L52.6787 62.5439V62.5459C52.3692 66.7339 49.2221 69.7158 46.2002 69.7158C43.2716 69.7155 40.2235 66.916 39.7578 62.9326L39.7207 62.543C39.5844 60.66 40.1354 58.9651 41.1729 57.7207L41.3877 57.4775C42.5667 56.2112 44.2521 55.4796 46.2002 55.4795Z" fill="#CE0F0F" stroke="#CE0F0F" stroke-width="4"/>
</svg>
