<svg width="38" height="34" viewBox="0 0 38 34" fill="none" xmlns="http://www.w3.org/2000/svg">
<path d="M17.8824 0C24.1792 0 27.7512 4.3588 28.2698 9.62427H28.4262C31.2025 9.62427 33.6166 11.2313 34.8639 13.6H32.1547C31.6872 13.0653 31.1136 12.6366 30.4715 12.3421C29.8294 12.0476 29.1332 11.8939 28.4285 11.8909H28.2698C27.7156 11.8909 27.1812 11.6822 26.7703 11.3053C26.3593 10.9283 26.1011 10.41 26.0456 9.85093C25.5941 5.27 22.5966 2.26667 17.8824 2.26667C13.1569 2.26667 10.1728 5.2496 9.71906 9.84867C9.66416 10.4082 9.40615 10.927 8.99513 11.3044C8.58411 11.6819 8.04943 11.8909 7.49494 11.8909H7.33847C4.53094 11.8909 2.23529 14.2891 2.23529 17.2788C2.23529 20.2708 4.53318 22.6667 7.33624 22.6667H15.6471V24.9333H7.33624C3.28365 24.9333 0 21.5061 0 17.2788C0 13.192 3.06906 9.8532 6.93388 9.6356L7.49494 9.62427C8.018 4.3248 11.5855 0 17.8824 0ZM17.8824 18.1333C17.8824 17.5322 18.1179 16.9556 18.5371 16.5306C18.9563 16.1055 19.5248 15.8667 20.1176 15.8667H35.7647C36.3575 15.8667 36.9261 16.1055 37.3453 16.5306C37.7645 16.9556 38 17.5322 38 18.1333V27.2C38 27.8012 37.7645 28.3777 37.3453 28.8028C36.9261 29.2279 36.3575 29.4667 35.7647 29.4667H31.2941V31.7333H32.4118C32.7082 31.7333 32.9925 31.8527 33.2021 32.0653C33.4117 32.2778 33.5294 32.5661 33.5294 32.8667C33.5294 33.1672 33.4117 33.4555 33.2021 33.6681C32.9925 33.8806 32.7082 34 32.4118 34H23.4706C23.1742 34 22.8899 33.8806 22.6803 33.6681C22.4707 33.4555 22.3529 33.1672 22.3529 32.8667C22.3529 32.5661 22.4707 32.2778 22.6803 32.0653C22.8899 31.8527 23.1742 31.7333 23.4706 31.7333H24.5882V29.4667H20.1176C19.5248 29.4667 18.9563 29.2279 18.5371 28.8028C18.1179 28.3777 17.8824 27.8012 17.8824 27.2V18.1333Z" fill="#CE0F0F"/>
</svg>
